%TF.GenerationSoftware,KiCad,Pcbnew,4.0.1-stable*%
%TF.CreationDate,2016-10-12T20:15:11+09:00*%
%TF.ProjectId,I2C_MASTER,4932435F4D41535445522E6B69636164,rev?*%
%TF.FileFunction,Legend,Top*%
%FSLAX46Y46*%
G04 Gerber Fmt 4.6, Leading zero omitted, Abs format (unit mm)*
G04 Created by KiCad (PCBNEW 4.0.1-stable) date 10/12/16 20:15:11*
%MOMM*%
G01*
G04 APERTURE LIST*
%ADD10C,0.150000*%
%ADD11C,0.152400*%
%ADD12C,0.101600*%
%ADD13C,0.254000*%
%ADD14C,0.160000*%
%ADD15C,0.142240*%
%ADD16C,3.600000*%
%ADD17R,1.600000X1.150000*%
%ADD18R,1.400760X1.901140*%
%ADD19R,2.398980X3.399740*%
%ADD20R,0.650000X1.100000*%
%ADD21R,1.100000X0.650000*%
%ADD22R,1.687500X1.687500*%
%ADD23C,1.822400*%
%ADD24C,2.398980*%
%ADD25R,1.400000X1.650000*%
%ADD26R,1.200000X1.150000*%
%ADD27R,1.150000X1.200000*%
%ADD28R,1.300000X0.900000*%
%ADD29O,3.416000X1.908000*%
%ADD30R,2.400000X2.400000*%
%ADD31C,2.400000*%
%ADD32R,0.900000X1.300000*%
%ADD33C,1.299160*%
%ADD34R,2.899360X2.398980*%
%ADD35R,3.699460X2.398980*%
%ADD36R,3.498800X0.897840*%
%ADD37R,1.600000X2.100000*%
%ADD38O,1.600000X2.100000*%
G04 APERTURE END LIST*
D10*
X20650000Y-27400000D02*
X21350000Y-27400000D01*
X21350000Y-28600000D02*
X20650000Y-28600000D01*
X21100080Y-4200660D02*
X21349000Y-3900940D01*
X21349000Y-3900940D02*
X21450600Y-3751080D01*
X21450600Y-3751080D02*
X21450600Y-4599440D01*
X20749560Y-2699520D02*
X20749560Y-4500380D01*
X20749560Y-2699520D02*
X21399800Y-2699520D01*
X25250440Y-2699520D02*
X25250440Y-4500380D01*
X25250440Y-2699520D02*
X24600200Y-2699520D01*
X29625000Y-20625000D02*
X29100000Y-20625000D01*
X22375000Y-13375000D02*
X22900000Y-13375000D01*
X22375000Y-20625000D02*
X22900000Y-20625000D01*
X29625000Y-13375000D02*
X29625000Y-13900000D01*
X22375000Y-13375000D02*
X22375000Y-13900000D01*
X22375000Y-20625000D02*
X22375000Y-20100000D01*
X29625000Y-20625000D02*
X29625000Y-20100000D01*
X11214000Y-28334000D02*
G75*
G03X15786000Y-28334000I2286000J0D01*
G01*
X15786000Y-22746000D02*
G75*
G03X11214000Y-22746000I-2286000J0D01*
G01*
X11214000Y-22746000D02*
X11214000Y-28334000D01*
X15786000Y-22746000D02*
X15786000Y-28334000D01*
X21000000Y-9350000D02*
X22000000Y-9350000D01*
X22000000Y-7650000D02*
X21000000Y-7650000D01*
X25900000Y-7650000D02*
X24900000Y-7650000D01*
X24900000Y-9350000D02*
X25900000Y-9350000D01*
X17350000Y-19600000D02*
X16650000Y-19600000D01*
X16650000Y-18400000D02*
X17350000Y-18400000D01*
X22900000Y-24850000D02*
X22900000Y-24150000D01*
X24100000Y-24150000D02*
X24100000Y-24850000D01*
X33850000Y-15100000D02*
X33150000Y-15100000D01*
X33150000Y-13900000D02*
X33850000Y-13900000D01*
X19350000Y-14350000D02*
X18650000Y-14350000D01*
X18650000Y-13150000D02*
X19350000Y-13150000D01*
X17350000Y-17600000D02*
X16650000Y-17600000D01*
X16650000Y-16400000D02*
X17350000Y-16400000D01*
X21600000Y-22650000D02*
X21600000Y-23350000D01*
X20400000Y-23350000D02*
X20400000Y-22650000D01*
X25150000Y-24850000D02*
X25150000Y-24150000D01*
X26350000Y-24150000D02*
X26350000Y-24850000D01*
X30900000Y-21650000D02*
X31600000Y-21650000D01*
X31600000Y-22850000D02*
X30900000Y-22850000D01*
X33850000Y-17100000D02*
X33150000Y-17100000D01*
X33150000Y-15900000D02*
X33850000Y-15900000D01*
X31350000Y-11150000D02*
X31350000Y-11850000D01*
X30150000Y-11850000D02*
X30150000Y-11150000D01*
X16900000Y-22600000D02*
X16900000Y-21900000D01*
X18100000Y-21900000D02*
X18100000Y-22600000D01*
X18100000Y-25400000D02*
X18100000Y-26100000D01*
X16900000Y-26100000D02*
X16900000Y-25400000D01*
X30675000Y-27250000D02*
X30675000Y-28250000D01*
X29325000Y-28250000D02*
X29325000Y-27250000D01*
X28175000Y-27250000D02*
X28175000Y-28250000D01*
X26825000Y-28250000D02*
X26825000Y-27250000D01*
X34325000Y-20500000D02*
X34325000Y-19500000D01*
X35675000Y-19500000D02*
X35675000Y-20500000D01*
X32325000Y-20500000D02*
X32325000Y-19500000D01*
X33675000Y-19500000D02*
X33675000Y-20500000D01*
D11*
X47703000Y-15052000D02*
X47703000Y-8448000D01*
X37797000Y-8448000D02*
X37797000Y-15052000D01*
X37797000Y-15052000D02*
X41099000Y-15052000D01*
X44401000Y-15052000D02*
X44401000Y-14544000D01*
X44401000Y-14544000D02*
X41099000Y-14544000D01*
X41099000Y-14544000D02*
X41099000Y-15052000D01*
X44401000Y-15052000D02*
X47703000Y-15052000D01*
X41099000Y-15052000D02*
X44401000Y-15052000D01*
X47703000Y-8448000D02*
X44401000Y-8448000D01*
X41099000Y-8448000D02*
X41099000Y-8956000D01*
X41099000Y-8956000D02*
X44401000Y-8956000D01*
X44401000Y-8956000D02*
X44401000Y-8448000D01*
X41099000Y-8448000D02*
X37797000Y-8448000D01*
X44401000Y-8448000D02*
X41099000Y-8448000D01*
X40845000Y-11242000D02*
X44655000Y-11242000D01*
X40845000Y-11242000D02*
X40845000Y-9718000D01*
X44655000Y-9718000D02*
X40845000Y-9718000D01*
X44655000Y-9718000D02*
X44655000Y-11242000D01*
X40845000Y-13782000D02*
X44655000Y-13782000D01*
X40845000Y-13782000D02*
X40845000Y-12258000D01*
X44655000Y-12258000D02*
X40845000Y-12258000D01*
X44655000Y-12258000D02*
X44655000Y-13782000D01*
D10*
G36*
X43131000Y-10988000D02*
X43131000Y-9972000D01*
X42750000Y-9972000D01*
X42750000Y-10988000D01*
X43131000Y-10988000D01*
G37*
G36*
X43766000Y-10988000D02*
X43766000Y-9972000D01*
X43385000Y-9972000D01*
X43385000Y-10988000D01*
X43766000Y-10988000D01*
G37*
G36*
X44401000Y-10988000D02*
X44401000Y-9972000D01*
X44020000Y-9972000D01*
X44020000Y-10988000D01*
X44401000Y-10988000D01*
G37*
G36*
X43131000Y-13528000D02*
X43131000Y-12512000D01*
X42750000Y-12512000D01*
X42750000Y-13528000D01*
X43131000Y-13528000D01*
G37*
G36*
X43766000Y-13528000D02*
X43766000Y-12512000D01*
X43385000Y-12512000D01*
X43385000Y-13528000D01*
X43766000Y-13528000D01*
G37*
G36*
X44401000Y-13528000D02*
X44401000Y-12512000D01*
X44020000Y-12512000D01*
X44020000Y-13528000D01*
X44401000Y-13528000D01*
G37*
X13499000Y-2686000D02*
X13499000Y-2886000D01*
X13499000Y-5280000D02*
X13499000Y-5100000D01*
X10271256Y-4969643D02*
G75*
G03X13499000Y-5286000I1727744J1003643D01*
G01*
X10946994Y-5099068D02*
G75*
G03X13050000Y-5100000I1052006J1133068D01*
G01*
X13486220Y-2659274D02*
G75*
G03X10249000Y-3006000I-1497220J-1306726D01*
G01*
X13012889Y-2886747D02*
G75*
G03X10965000Y-2906000I-1013889J-1079253D01*
G01*
X13499000Y-8686000D02*
X13499000Y-8886000D01*
X13499000Y-11280000D02*
X13499000Y-11100000D01*
X10271256Y-10969643D02*
G75*
G03X13499000Y-11286000I1727744J1003643D01*
G01*
X10946994Y-11099068D02*
G75*
G03X13050000Y-11100000I1052006J1133068D01*
G01*
X13486220Y-8659274D02*
G75*
G03X10249000Y-9006000I-1497220J-1306726D01*
G01*
X13012889Y-8886747D02*
G75*
G03X10965000Y-8906000I-1013889J-1079253D01*
G01*
X16500000Y-3325000D02*
X17500000Y-3325000D01*
X17500000Y-4675000D02*
X16500000Y-4675000D01*
X16500000Y-9325000D02*
X17500000Y-9325000D01*
X17500000Y-10675000D02*
X16500000Y-10675000D01*
D12*
X7338780Y-14401580D02*
X6208480Y-14401580D01*
X-1520740Y-20845560D02*
X-1520740Y-13154440D01*
X7356560Y-19697480D02*
X6208480Y-19697480D01*
X-1518200Y-20840480D02*
X-1518200Y-20840480D01*
X-1518200Y-20840480D02*
X-1518200Y-13159520D01*
X2583900Y-14040900D02*
X-166920Y-14249180D01*
X121925Y-14415029D02*
G75*
G03X-166920Y-14249180I-265985J-128791D01*
G01*
X-107987Y-13986247D02*
G75*
G03X-426000Y-14457460I611627J-755693D01*
G01*
X-327339Y-14711609D02*
G75*
G03X-426000Y-15028960I183279J-230991D01*
G01*
X-166920Y-15237240D02*
X2583900Y-15496320D01*
X2583900Y-15496320D02*
X2583900Y-15288040D01*
X2583900Y-15288040D02*
X196300Y-15028960D01*
X196300Y-15028960D02*
X196300Y-14508260D01*
X196300Y-14508260D02*
X2583900Y-14249180D01*
X2583900Y-14249180D02*
X2583900Y-14040900D01*
X-166920Y-15755400D02*
X3881840Y-15963680D01*
X3653413Y-16145526D02*
G75*
G02X3881840Y-15963680I215727J-36594D01*
G01*
X41360Y-15963680D02*
G75*
G03X-166920Y-15755400I-208280J0D01*
G01*
X-375200Y-15963680D02*
X-375200Y-15963680D01*
X-166920Y-15755400D02*
G75*
G03X-375200Y-15963680I0J-208280D01*
G01*
X-166920Y-16169420D02*
X3259540Y-16377700D01*
X2583900Y-19956560D02*
X-166920Y-19750820D01*
X121925Y-19584971D02*
G75*
G02X-166920Y-19750820I-265985J128791D01*
G01*
X-106567Y-20013318D02*
G75*
G02X-426000Y-19542540I610207J757798D01*
G01*
X-327339Y-19288391D02*
G75*
G02X-426000Y-18971040I183279J230991D01*
G01*
X-166920Y-18762760D02*
X2583900Y-18503680D01*
X2583900Y-18503680D02*
X2583900Y-18711960D01*
X2583900Y-18711960D02*
X196300Y-18971040D01*
X196300Y-18971040D02*
X196300Y-19489200D01*
X196300Y-19489200D02*
X2583900Y-19750820D01*
X2583900Y-19750820D02*
X2583900Y-19956560D01*
X-166920Y-18244600D02*
X3881840Y-18036320D01*
X3653413Y-17854474D02*
G75*
G03X3881840Y-18036320I215727J36594D01*
G01*
X4090120Y-17828040D02*
X4090120Y-16169420D01*
X41360Y-18036320D02*
G75*
G02X-166920Y-18244600I-208280J0D01*
G01*
X-166920Y-18244600D02*
G75*
G02X-375200Y-18036320I0J208280D01*
G01*
X-166920Y-17828040D02*
X3259540Y-17622300D01*
X3259540Y-17622300D02*
X3259540Y-16377700D01*
X-1518200Y-20840480D02*
X-14520Y-20840480D01*
X-1518200Y-13159520D02*
X-14520Y-13159520D01*
X5482040Y-20845560D02*
X2797260Y-20845560D01*
X2848060Y-13154440D02*
X5382980Y-13154440D01*
X7338780Y-13677680D02*
X7338780Y-14401580D01*
X6208480Y-14401580D02*
X6208480Y-13677680D01*
X6208480Y-19697480D02*
X6208480Y-20322320D01*
X7356560Y-20329940D02*
X7356560Y-19697480D01*
D10*
X36325000Y-20500000D02*
X36325000Y-19500000D01*
X37675000Y-19500000D02*
X37675000Y-20500000D01*
X38325000Y-20500000D02*
X38325000Y-19500000D01*
X39675000Y-19500000D02*
X39675000Y-20500000D01*
D13*
X48175000Y-17190000D02*
X48175000Y-24810000D01*
X48175000Y-24810000D02*
X46270000Y-24810000D01*
X46270000Y-24810000D02*
X41825000Y-24810000D01*
X41825000Y-24810000D02*
X41825000Y-17190000D01*
X41825000Y-17190000D02*
X46270000Y-17190000D01*
X46270000Y-17190000D02*
X48175000Y-17190000D01*
X46270000Y-17190000D02*
X46270000Y-24810000D01*
D10*
X28550000Y-5800000D02*
X28550000Y-1300000D01*
X28550000Y-1300000D02*
X40450000Y-1300000D01*
X40450000Y-1300000D02*
X40450000Y-5800000D01*
X40450000Y-5800000D02*
X28550000Y-5800000D01*
X31000000Y-1300000D02*
X31000000Y-1800000D01*
X31000000Y-1800000D02*
X29050000Y-1800000D01*
X29050000Y-1800000D02*
X29050000Y-5300000D01*
X29050000Y-5300000D02*
X39950000Y-5300000D01*
X39950000Y-5300000D02*
X39950000Y-1800000D01*
X39950000Y-1800000D02*
X38000000Y-1800000D01*
X38000000Y-1800000D02*
X38000000Y-1300000D01*
X28550000Y-2500000D02*
X29050000Y-2500000D01*
X28550000Y-3800000D02*
X29050000Y-3800000D01*
X39950000Y-2500000D02*
X40450000Y-2500000D01*
X39950000Y-3800000D02*
X40450000Y-3800000D01*
X30200000Y-1300000D02*
X30200000Y-1100000D01*
X30200000Y-1100000D02*
X29900000Y-1100000D01*
X29900000Y-1100000D02*
X29900000Y-1300000D01*
X30200000Y-1200000D02*
X29900000Y-1200000D01*
X31400000Y-5300000D02*
X31400000Y-4800000D01*
X31400000Y-4800000D02*
X31600000Y-4800000D01*
X31600000Y-4800000D02*
X31600000Y-5300000D01*
X31500000Y-5300000D02*
X31500000Y-4800000D01*
X33400000Y-5300000D02*
X33400000Y-4800000D01*
X33400000Y-4800000D02*
X33600000Y-4800000D01*
X33600000Y-4800000D02*
X33600000Y-5300000D01*
X33500000Y-5300000D02*
X33500000Y-4800000D01*
X35400000Y-5300000D02*
X35400000Y-4800000D01*
X35400000Y-4800000D02*
X35600000Y-4800000D01*
X35600000Y-4800000D02*
X35600000Y-5300000D01*
X35500000Y-5300000D02*
X35500000Y-4800000D01*
X37400000Y-5300000D02*
X37400000Y-4800000D01*
X37400000Y-4800000D02*
X37600000Y-4800000D01*
X37600000Y-4800000D02*
X37600000Y-5300000D01*
X37500000Y-5300000D02*
X37500000Y-4800000D01*
X19466667Y-29428571D02*
X19133333Y-29428571D01*
X19133333Y-29952381D02*
X19133333Y-28952381D01*
X19609524Y-28952381D01*
X20323810Y-29428571D02*
X20466667Y-29476190D01*
X20514286Y-29523810D01*
X20561905Y-29619048D01*
X20561905Y-29761905D01*
X20514286Y-29857143D01*
X20466667Y-29904762D01*
X20371429Y-29952381D01*
X19990476Y-29952381D01*
X19990476Y-28952381D01*
X20323810Y-28952381D01*
X20419048Y-29000000D01*
X20466667Y-29047619D01*
X20514286Y-29142857D01*
X20514286Y-29238095D01*
X20466667Y-29333333D01*
X20419048Y-29380952D01*
X20323810Y-29428571D01*
X19990476Y-29428571D01*
X21514286Y-29952381D02*
X20942857Y-29952381D01*
X21228571Y-29952381D02*
X21228571Y-28952381D01*
X21133333Y-29095238D01*
X21038095Y-29190476D01*
X20942857Y-29238095D01*
X24797619Y-2202381D02*
X24797619Y-1202381D01*
X25845238Y-2107143D02*
X25797619Y-2154762D01*
X25654762Y-2202381D01*
X25559524Y-2202381D01*
X25416666Y-2154762D01*
X25321428Y-2059524D01*
X25273809Y-1964286D01*
X25226190Y-1773810D01*
X25226190Y-1630952D01*
X25273809Y-1440476D01*
X25321428Y-1345238D01*
X25416666Y-1250000D01*
X25559524Y-1202381D01*
X25654762Y-1202381D01*
X25797619Y-1250000D01*
X25845238Y-1297619D01*
X26797619Y-2202381D02*
X26226190Y-2202381D01*
X26511904Y-2202381D02*
X26511904Y-1202381D01*
X26416666Y-1345238D01*
X26321428Y-1440476D01*
X26226190Y-1488095D01*
X27750000Y-2202381D02*
X27178571Y-2202381D01*
X27464285Y-2202381D02*
X27464285Y-1202381D01*
X27369047Y-1345238D01*
X27273809Y-1440476D01*
X27178571Y-1488095D01*
X21452381Y-17452381D02*
X20452381Y-17452381D01*
X21357143Y-16404762D02*
X21404762Y-16452381D01*
X21452381Y-16595238D01*
X21452381Y-16690476D01*
X21404762Y-16833334D01*
X21309524Y-16928572D01*
X21214286Y-16976191D01*
X21023810Y-17023810D01*
X20880952Y-17023810D01*
X20690476Y-16976191D01*
X20595238Y-16928572D01*
X20500000Y-16833334D01*
X20452381Y-16690476D01*
X20452381Y-16595238D01*
X20500000Y-16452381D01*
X20547619Y-16404762D01*
X20547619Y-16023810D02*
X20500000Y-15976191D01*
X20452381Y-15880953D01*
X20452381Y-15642857D01*
X20500000Y-15547619D01*
X20547619Y-15500000D01*
X20642857Y-15452381D01*
X20738095Y-15452381D01*
X20880952Y-15500000D01*
X21452381Y-16071429D01*
X21452381Y-15452381D01*
X21452381Y-14500000D02*
X21452381Y-15071429D01*
X21452381Y-14785715D02*
X20452381Y-14785715D01*
X20595238Y-14880953D01*
X20690476Y-14976191D01*
X20738095Y-15071429D01*
X9252381Y-27109524D02*
X10252381Y-26442857D01*
X9252381Y-26442857D02*
X10252381Y-27109524D01*
X10252381Y-25538095D02*
X10252381Y-26109524D01*
X10252381Y-25823810D02*
X9252381Y-25823810D01*
X9395238Y-25919048D01*
X9490476Y-26014286D01*
X9538095Y-26109524D01*
X23809524Y-33404762D02*
X23952381Y-33452381D01*
X24190477Y-33452381D01*
X24285715Y-33404762D01*
X24333334Y-33357143D01*
X24380953Y-33261905D01*
X24380953Y-33166667D01*
X24333334Y-33071429D01*
X24285715Y-33023810D01*
X24190477Y-32976190D01*
X24000000Y-32928571D01*
X23904762Y-32880952D01*
X23857143Y-32833333D01*
X23809524Y-32738095D01*
X23809524Y-32642857D01*
X23857143Y-32547619D01*
X23904762Y-32500000D01*
X24000000Y-32452381D01*
X24238096Y-32452381D01*
X24380953Y-32500000D01*
X25380953Y-33357143D02*
X25333334Y-33404762D01*
X25190477Y-33452381D01*
X25095239Y-33452381D01*
X24952381Y-33404762D01*
X24857143Y-33309524D01*
X24809524Y-33214286D01*
X24761905Y-33023810D01*
X24761905Y-32880952D01*
X24809524Y-32690476D01*
X24857143Y-32595238D01*
X24952381Y-32500000D01*
X25095239Y-32452381D01*
X25190477Y-32452381D01*
X25333334Y-32500000D01*
X25380953Y-32547619D01*
X26285715Y-33452381D02*
X25809524Y-33452381D01*
X25809524Y-32452381D01*
X27885714Y-33404762D02*
X28028571Y-33452381D01*
X28266667Y-33452381D01*
X28361905Y-33404762D01*
X28409524Y-33357143D01*
X28457143Y-33261905D01*
X28457143Y-33166667D01*
X28409524Y-33071429D01*
X28361905Y-33023810D01*
X28266667Y-32976190D01*
X28076190Y-32928571D01*
X27980952Y-32880952D01*
X27933333Y-32833333D01*
X27885714Y-32738095D01*
X27885714Y-32642857D01*
X27933333Y-32547619D01*
X27980952Y-32500000D01*
X28076190Y-32452381D01*
X28314286Y-32452381D01*
X28457143Y-32500000D01*
X28885714Y-33452381D02*
X28885714Y-32452381D01*
X29123809Y-32452381D01*
X29266667Y-32500000D01*
X29361905Y-32595238D01*
X29409524Y-32690476D01*
X29457143Y-32880952D01*
X29457143Y-33023810D01*
X29409524Y-33214286D01*
X29361905Y-33309524D01*
X29266667Y-33404762D01*
X29123809Y-33452381D01*
X28885714Y-33452381D01*
X29838095Y-33166667D02*
X30314286Y-33166667D01*
X29742857Y-33452381D02*
X30076190Y-32452381D01*
X30409524Y-33452381D01*
X35866667Y-32452381D02*
X36200000Y-33452381D01*
X36533334Y-32452381D01*
X37438096Y-33357143D02*
X37390477Y-33404762D01*
X37247620Y-33452381D01*
X37152382Y-33452381D01*
X37009524Y-33404762D01*
X36914286Y-33309524D01*
X36866667Y-33214286D01*
X36819048Y-33023810D01*
X36819048Y-32880952D01*
X36866667Y-32690476D01*
X36914286Y-32595238D01*
X37009524Y-32500000D01*
X37152382Y-32452381D01*
X37247620Y-32452381D01*
X37390477Y-32500000D01*
X37438096Y-32547619D01*
X38438096Y-33357143D02*
X38390477Y-33404762D01*
X38247620Y-33452381D01*
X38152382Y-33452381D01*
X38009524Y-33404762D01*
X37914286Y-33309524D01*
X37866667Y-33214286D01*
X37819048Y-33023810D01*
X37819048Y-32880952D01*
X37866667Y-32690476D01*
X37914286Y-32595238D01*
X38009524Y-32500000D01*
X38152382Y-32452381D01*
X38247620Y-32452381D01*
X38390477Y-32500000D01*
X38438096Y-32547619D01*
X32338096Y-32600000D02*
X32242858Y-32552381D01*
X32100001Y-32552381D01*
X31957143Y-32600000D01*
X31861905Y-32695238D01*
X31814286Y-32790476D01*
X31766667Y-32980952D01*
X31766667Y-33123810D01*
X31814286Y-33314286D01*
X31861905Y-33409524D01*
X31957143Y-33504762D01*
X32100001Y-33552381D01*
X32195239Y-33552381D01*
X32338096Y-33504762D01*
X32385715Y-33457143D01*
X32385715Y-33123810D01*
X32195239Y-33123810D01*
X32814286Y-33552381D02*
X32814286Y-32552381D01*
X33385715Y-33552381D01*
X33385715Y-32552381D01*
X33861905Y-33552381D02*
X33861905Y-32552381D01*
X34100000Y-32552381D01*
X34242858Y-32600000D01*
X34338096Y-32695238D01*
X34385715Y-32790476D01*
X34433334Y-32980952D01*
X34433334Y-33123810D01*
X34385715Y-33314286D01*
X34338096Y-33409524D01*
X34242858Y-33504762D01*
X34100000Y-33552381D01*
X33861905Y-33552381D01*
X20633334Y-10457143D02*
X20585715Y-10504762D01*
X20442858Y-10552381D01*
X20347620Y-10552381D01*
X20204762Y-10504762D01*
X20109524Y-10409524D01*
X20061905Y-10314286D01*
X20014286Y-10123810D01*
X20014286Y-9980952D01*
X20061905Y-9790476D01*
X20109524Y-9695238D01*
X20204762Y-9600000D01*
X20347620Y-9552381D01*
X20442858Y-9552381D01*
X20585715Y-9600000D01*
X20633334Y-9647619D01*
X21585715Y-10552381D02*
X21014286Y-10552381D01*
X21300000Y-10552381D02*
X21300000Y-9552381D01*
X21204762Y-9695238D01*
X21109524Y-9790476D01*
X21014286Y-9838095D01*
X25533334Y-10557143D02*
X25485715Y-10604762D01*
X25342858Y-10652381D01*
X25247620Y-10652381D01*
X25104762Y-10604762D01*
X25009524Y-10509524D01*
X24961905Y-10414286D01*
X24914286Y-10223810D01*
X24914286Y-10080952D01*
X24961905Y-9890476D01*
X25009524Y-9795238D01*
X25104762Y-9700000D01*
X25247620Y-9652381D01*
X25342858Y-9652381D01*
X25485715Y-9700000D01*
X25533334Y-9747619D01*
X25914286Y-9747619D02*
X25961905Y-9700000D01*
X26057143Y-9652381D01*
X26295239Y-9652381D01*
X26390477Y-9700000D01*
X26438096Y-9747619D01*
X26485715Y-9842857D01*
X26485715Y-9938095D01*
X26438096Y-10080952D01*
X25866667Y-10652381D01*
X26485715Y-10652381D01*
X13457143Y-19457143D02*
X13409524Y-19504762D01*
X13266667Y-19552381D01*
X13171429Y-19552381D01*
X13028571Y-19504762D01*
X12933333Y-19409524D01*
X12885714Y-19314286D01*
X12838095Y-19123810D01*
X12838095Y-18980952D01*
X12885714Y-18790476D01*
X12933333Y-18695238D01*
X13028571Y-18600000D01*
X13171429Y-18552381D01*
X13266667Y-18552381D01*
X13409524Y-18600000D01*
X13457143Y-18647619D01*
X14409524Y-19552381D02*
X13838095Y-19552381D01*
X14123809Y-19552381D02*
X14123809Y-18552381D01*
X14028571Y-18695238D01*
X13933333Y-18790476D01*
X13838095Y-18838095D01*
X15361905Y-19552381D02*
X14790476Y-19552381D01*
X15076190Y-19552381D02*
X15076190Y-18552381D01*
X14980952Y-18695238D01*
X14885714Y-18790476D01*
X14790476Y-18838095D01*
X24057143Y-28642857D02*
X24104762Y-28690476D01*
X24152381Y-28833333D01*
X24152381Y-28928571D01*
X24104762Y-29071429D01*
X24009524Y-29166667D01*
X23914286Y-29214286D01*
X23723810Y-29261905D01*
X23580952Y-29261905D01*
X23390476Y-29214286D01*
X23295238Y-29166667D01*
X23200000Y-29071429D01*
X23152381Y-28928571D01*
X23152381Y-28833333D01*
X23200000Y-28690476D01*
X23247619Y-28642857D01*
X24152381Y-27690476D02*
X24152381Y-28261905D01*
X24152381Y-27976191D02*
X23152381Y-27976191D01*
X23295238Y-28071429D01*
X23390476Y-28166667D01*
X23438095Y-28261905D01*
X23247619Y-27309524D02*
X23200000Y-27261905D01*
X23152381Y-27166667D01*
X23152381Y-26928571D01*
X23200000Y-26833333D01*
X23247619Y-26785714D01*
X23342857Y-26738095D01*
X23438095Y-26738095D01*
X23580952Y-26785714D01*
X24152381Y-27357143D01*
X24152381Y-26738095D01*
X35857143Y-14857143D02*
X35809524Y-14904762D01*
X35666667Y-14952381D01*
X35571429Y-14952381D01*
X35428571Y-14904762D01*
X35333333Y-14809524D01*
X35285714Y-14714286D01*
X35238095Y-14523810D01*
X35238095Y-14380952D01*
X35285714Y-14190476D01*
X35333333Y-14095238D01*
X35428571Y-14000000D01*
X35571429Y-13952381D01*
X35666667Y-13952381D01*
X35809524Y-14000000D01*
X35857143Y-14047619D01*
X36809524Y-14952381D02*
X36238095Y-14952381D01*
X36523809Y-14952381D02*
X36523809Y-13952381D01*
X36428571Y-14095238D01*
X36333333Y-14190476D01*
X36238095Y-14238095D01*
X37142857Y-13952381D02*
X37761905Y-13952381D01*
X37428571Y-14333333D01*
X37571429Y-14333333D01*
X37666667Y-14380952D01*
X37714286Y-14428571D01*
X37761905Y-14523810D01*
X37761905Y-14761905D01*
X37714286Y-14857143D01*
X37666667Y-14904762D01*
X37571429Y-14952381D01*
X37285714Y-14952381D01*
X37190476Y-14904762D01*
X37142857Y-14857143D01*
X15357143Y-14107143D02*
X15309524Y-14154762D01*
X15166667Y-14202381D01*
X15071429Y-14202381D01*
X14928571Y-14154762D01*
X14833333Y-14059524D01*
X14785714Y-13964286D01*
X14738095Y-13773810D01*
X14738095Y-13630952D01*
X14785714Y-13440476D01*
X14833333Y-13345238D01*
X14928571Y-13250000D01*
X15071429Y-13202381D01*
X15166667Y-13202381D01*
X15309524Y-13250000D01*
X15357143Y-13297619D01*
X15738095Y-13297619D02*
X15785714Y-13250000D01*
X15880952Y-13202381D01*
X16119048Y-13202381D01*
X16214286Y-13250000D01*
X16261905Y-13297619D01*
X16309524Y-13392857D01*
X16309524Y-13488095D01*
X16261905Y-13630952D01*
X15690476Y-14202381D01*
X16309524Y-14202381D01*
X17261905Y-14202381D02*
X16690476Y-14202381D01*
X16976190Y-14202381D02*
X16976190Y-13202381D01*
X16880952Y-13345238D01*
X16785714Y-13440476D01*
X16690476Y-13488095D01*
X14657143Y-15957143D02*
X14609524Y-16004762D01*
X14466667Y-16052381D01*
X14371429Y-16052381D01*
X14228571Y-16004762D01*
X14133333Y-15909524D01*
X14085714Y-15814286D01*
X14038095Y-15623810D01*
X14038095Y-15480952D01*
X14085714Y-15290476D01*
X14133333Y-15195238D01*
X14228571Y-15100000D01*
X14371429Y-15052381D01*
X14466667Y-15052381D01*
X14609524Y-15100000D01*
X14657143Y-15147619D01*
X15038095Y-15147619D02*
X15085714Y-15100000D01*
X15180952Y-15052381D01*
X15419048Y-15052381D01*
X15514286Y-15100000D01*
X15561905Y-15147619D01*
X15609524Y-15242857D01*
X15609524Y-15338095D01*
X15561905Y-15480952D01*
X14990476Y-16052381D01*
X15609524Y-16052381D01*
X15990476Y-15147619D02*
X16038095Y-15100000D01*
X16133333Y-15052381D01*
X16371429Y-15052381D01*
X16466667Y-15100000D01*
X16514286Y-15147619D01*
X16561905Y-15242857D01*
X16561905Y-15338095D01*
X16514286Y-15480952D01*
X15942857Y-16052381D01*
X16561905Y-16052381D01*
X21357143Y-26342857D02*
X21404762Y-26390476D01*
X21452381Y-26533333D01*
X21452381Y-26628571D01*
X21404762Y-26771429D01*
X21309524Y-26866667D01*
X21214286Y-26914286D01*
X21023810Y-26961905D01*
X20880952Y-26961905D01*
X20690476Y-26914286D01*
X20595238Y-26866667D01*
X20500000Y-26771429D01*
X20452381Y-26628571D01*
X20452381Y-26533333D01*
X20500000Y-26390476D01*
X20547619Y-26342857D01*
X20547619Y-25961905D02*
X20500000Y-25914286D01*
X20452381Y-25819048D01*
X20452381Y-25580952D01*
X20500000Y-25485714D01*
X20547619Y-25438095D01*
X20642857Y-25390476D01*
X20738095Y-25390476D01*
X20880952Y-25438095D01*
X21452381Y-26009524D01*
X21452381Y-25390476D01*
X20452381Y-25057143D02*
X20452381Y-24438095D01*
X20833333Y-24771429D01*
X20833333Y-24628571D01*
X20880952Y-24533333D01*
X20928571Y-24485714D01*
X21023810Y-24438095D01*
X21261905Y-24438095D01*
X21357143Y-24485714D01*
X21404762Y-24533333D01*
X21452381Y-24628571D01*
X21452381Y-24914286D01*
X21404762Y-25009524D01*
X21357143Y-25057143D01*
X25857143Y-28142857D02*
X25904762Y-28190476D01*
X25952381Y-28333333D01*
X25952381Y-28428571D01*
X25904762Y-28571429D01*
X25809524Y-28666667D01*
X25714286Y-28714286D01*
X25523810Y-28761905D01*
X25380952Y-28761905D01*
X25190476Y-28714286D01*
X25095238Y-28666667D01*
X25000000Y-28571429D01*
X24952381Y-28428571D01*
X24952381Y-28333333D01*
X25000000Y-28190476D01*
X25047619Y-28142857D01*
X25047619Y-27761905D02*
X25000000Y-27714286D01*
X24952381Y-27619048D01*
X24952381Y-27380952D01*
X25000000Y-27285714D01*
X25047619Y-27238095D01*
X25142857Y-27190476D01*
X25238095Y-27190476D01*
X25380952Y-27238095D01*
X25952381Y-27809524D01*
X25952381Y-27190476D01*
X25285714Y-26333333D02*
X25952381Y-26333333D01*
X24904762Y-26571429D02*
X25619048Y-26809524D01*
X25619048Y-26190476D01*
X29957143Y-24057143D02*
X29909524Y-24104762D01*
X29766667Y-24152381D01*
X29671429Y-24152381D01*
X29528571Y-24104762D01*
X29433333Y-24009524D01*
X29385714Y-23914286D01*
X29338095Y-23723810D01*
X29338095Y-23580952D01*
X29385714Y-23390476D01*
X29433333Y-23295238D01*
X29528571Y-23200000D01*
X29671429Y-23152381D01*
X29766667Y-23152381D01*
X29909524Y-23200000D01*
X29957143Y-23247619D01*
X30338095Y-23247619D02*
X30385714Y-23200000D01*
X30480952Y-23152381D01*
X30719048Y-23152381D01*
X30814286Y-23200000D01*
X30861905Y-23247619D01*
X30909524Y-23342857D01*
X30909524Y-23438095D01*
X30861905Y-23580952D01*
X30290476Y-24152381D01*
X30909524Y-24152381D01*
X31814286Y-23152381D02*
X31338095Y-23152381D01*
X31290476Y-23628571D01*
X31338095Y-23580952D01*
X31433333Y-23533333D01*
X31671429Y-23533333D01*
X31766667Y-23580952D01*
X31814286Y-23628571D01*
X31861905Y-23723810D01*
X31861905Y-23961905D01*
X31814286Y-24057143D01*
X31766667Y-24104762D01*
X31671429Y-24152381D01*
X31433333Y-24152381D01*
X31338095Y-24104762D01*
X31290476Y-24057143D01*
X35757143Y-16857143D02*
X35709524Y-16904762D01*
X35566667Y-16952381D01*
X35471429Y-16952381D01*
X35328571Y-16904762D01*
X35233333Y-16809524D01*
X35185714Y-16714286D01*
X35138095Y-16523810D01*
X35138095Y-16380952D01*
X35185714Y-16190476D01*
X35233333Y-16095238D01*
X35328571Y-16000000D01*
X35471429Y-15952381D01*
X35566667Y-15952381D01*
X35709524Y-16000000D01*
X35757143Y-16047619D01*
X36138095Y-16047619D02*
X36185714Y-16000000D01*
X36280952Y-15952381D01*
X36519048Y-15952381D01*
X36614286Y-16000000D01*
X36661905Y-16047619D01*
X36709524Y-16142857D01*
X36709524Y-16238095D01*
X36661905Y-16380952D01*
X36090476Y-16952381D01*
X36709524Y-16952381D01*
X37566667Y-15952381D02*
X37376190Y-15952381D01*
X37280952Y-16000000D01*
X37233333Y-16047619D01*
X37138095Y-16190476D01*
X37090476Y-16380952D01*
X37090476Y-16761905D01*
X37138095Y-16857143D01*
X37185714Y-16904762D01*
X37280952Y-16952381D01*
X37471429Y-16952381D01*
X37566667Y-16904762D01*
X37614286Y-16857143D01*
X37661905Y-16761905D01*
X37661905Y-16523810D01*
X37614286Y-16428571D01*
X37566667Y-16380952D01*
X37471429Y-16333333D01*
X37280952Y-16333333D01*
X37185714Y-16380952D01*
X37138095Y-16428571D01*
X37090476Y-16523810D01*
X31107143Y-8892857D02*
X31154762Y-8940476D01*
X31202381Y-9083333D01*
X31202381Y-9178571D01*
X31154762Y-9321429D01*
X31059524Y-9416667D01*
X30964286Y-9464286D01*
X30773810Y-9511905D01*
X30630952Y-9511905D01*
X30440476Y-9464286D01*
X30345238Y-9416667D01*
X30250000Y-9321429D01*
X30202381Y-9178571D01*
X30202381Y-9083333D01*
X30250000Y-8940476D01*
X30297619Y-8892857D01*
X30297619Y-8511905D02*
X30250000Y-8464286D01*
X30202381Y-8369048D01*
X30202381Y-8130952D01*
X30250000Y-8035714D01*
X30297619Y-7988095D01*
X30392857Y-7940476D01*
X30488095Y-7940476D01*
X30630952Y-7988095D01*
X31202381Y-8559524D01*
X31202381Y-7940476D01*
X30202381Y-7607143D02*
X30202381Y-6940476D01*
X31202381Y-7369048D01*
X19257143Y-22642857D02*
X19304762Y-22690476D01*
X19352381Y-22833333D01*
X19352381Y-22928571D01*
X19304762Y-23071429D01*
X19209524Y-23166667D01*
X19114286Y-23214286D01*
X18923810Y-23261905D01*
X18780952Y-23261905D01*
X18590476Y-23214286D01*
X18495238Y-23166667D01*
X18400000Y-23071429D01*
X18352381Y-22928571D01*
X18352381Y-22833333D01*
X18400000Y-22690476D01*
X18447619Y-22642857D01*
X18352381Y-22309524D02*
X18352381Y-21690476D01*
X18733333Y-22023810D01*
X18733333Y-21880952D01*
X18780952Y-21785714D01*
X18828571Y-21738095D01*
X18923810Y-21690476D01*
X19161905Y-21690476D01*
X19257143Y-21738095D01*
X19304762Y-21785714D01*
X19352381Y-21880952D01*
X19352381Y-22166667D01*
X19304762Y-22261905D01*
X19257143Y-22309524D01*
X19352381Y-20738095D02*
X19352381Y-21309524D01*
X19352381Y-21023810D02*
X18352381Y-21023810D01*
X18495238Y-21119048D01*
X18590476Y-21214286D01*
X18638095Y-21309524D01*
X19157143Y-26442857D02*
X19204762Y-26490476D01*
X19252381Y-26633333D01*
X19252381Y-26728571D01*
X19204762Y-26871429D01*
X19109524Y-26966667D01*
X19014286Y-27014286D01*
X18823810Y-27061905D01*
X18680952Y-27061905D01*
X18490476Y-27014286D01*
X18395238Y-26966667D01*
X18300000Y-26871429D01*
X18252381Y-26728571D01*
X18252381Y-26633333D01*
X18300000Y-26490476D01*
X18347619Y-26442857D01*
X18252381Y-26109524D02*
X18252381Y-25490476D01*
X18633333Y-25823810D01*
X18633333Y-25680952D01*
X18680952Y-25585714D01*
X18728571Y-25538095D01*
X18823810Y-25490476D01*
X19061905Y-25490476D01*
X19157143Y-25538095D01*
X19204762Y-25585714D01*
X19252381Y-25680952D01*
X19252381Y-25966667D01*
X19204762Y-26061905D01*
X19157143Y-26109524D01*
X18347619Y-25109524D02*
X18300000Y-25061905D01*
X18252381Y-24966667D01*
X18252381Y-24728571D01*
X18300000Y-24633333D01*
X18347619Y-24585714D01*
X18442857Y-24538095D01*
X18538095Y-24538095D01*
X18680952Y-24585714D01*
X19252381Y-25157143D01*
X19252381Y-24538095D01*
X32152381Y-28142857D02*
X31676190Y-28476191D01*
X32152381Y-28714286D02*
X31152381Y-28714286D01*
X31152381Y-28333333D01*
X31200000Y-28238095D01*
X31247619Y-28190476D01*
X31342857Y-28142857D01*
X31485714Y-28142857D01*
X31580952Y-28190476D01*
X31628571Y-28238095D01*
X31676190Y-28333333D01*
X31676190Y-28714286D01*
X32152381Y-27190476D02*
X32152381Y-27761905D01*
X32152381Y-27476191D02*
X31152381Y-27476191D01*
X31295238Y-27571429D01*
X31390476Y-27666667D01*
X31438095Y-27761905D01*
X32152381Y-26238095D02*
X32152381Y-26809524D01*
X32152381Y-26523810D02*
X31152381Y-26523810D01*
X31295238Y-26619048D01*
X31390476Y-26714286D01*
X31438095Y-26809524D01*
X28052381Y-25742857D02*
X27576190Y-26076191D01*
X28052381Y-26314286D02*
X27052381Y-26314286D01*
X27052381Y-25933333D01*
X27100000Y-25838095D01*
X27147619Y-25790476D01*
X27242857Y-25742857D01*
X27385714Y-25742857D01*
X27480952Y-25790476D01*
X27528571Y-25838095D01*
X27576190Y-25933333D01*
X27576190Y-26314286D01*
X28052381Y-24790476D02*
X28052381Y-25361905D01*
X28052381Y-25076191D02*
X27052381Y-25076191D01*
X27195238Y-25171429D01*
X27290476Y-25266667D01*
X27338095Y-25361905D01*
X27147619Y-24409524D02*
X27100000Y-24361905D01*
X27052381Y-24266667D01*
X27052381Y-24028571D01*
X27100000Y-23933333D01*
X27147619Y-23885714D01*
X27242857Y-23838095D01*
X27338095Y-23838095D01*
X27480952Y-23885714D01*
X28052381Y-24457143D01*
X28052381Y-23838095D01*
X35452381Y-23892857D02*
X34976190Y-24226191D01*
X35452381Y-24464286D02*
X34452381Y-24464286D01*
X34452381Y-24083333D01*
X34500000Y-23988095D01*
X34547619Y-23940476D01*
X34642857Y-23892857D01*
X34785714Y-23892857D01*
X34880952Y-23940476D01*
X34928571Y-23988095D01*
X34976190Y-24083333D01*
X34976190Y-24464286D01*
X34547619Y-23511905D02*
X34500000Y-23464286D01*
X34452381Y-23369048D01*
X34452381Y-23130952D01*
X34500000Y-23035714D01*
X34547619Y-22988095D01*
X34642857Y-22940476D01*
X34738095Y-22940476D01*
X34880952Y-22988095D01*
X35452381Y-23559524D01*
X35452381Y-22940476D01*
X35452381Y-21988095D02*
X35452381Y-22559524D01*
X35452381Y-22273810D02*
X34452381Y-22273810D01*
X34595238Y-22369048D01*
X34690476Y-22464286D01*
X34738095Y-22559524D01*
X33452381Y-23892857D02*
X32976190Y-24226191D01*
X33452381Y-24464286D02*
X32452381Y-24464286D01*
X32452381Y-24083333D01*
X32500000Y-23988095D01*
X32547619Y-23940476D01*
X32642857Y-23892857D01*
X32785714Y-23892857D01*
X32880952Y-23940476D01*
X32928571Y-23988095D01*
X32976190Y-24083333D01*
X32976190Y-24464286D01*
X32547619Y-23511905D02*
X32500000Y-23464286D01*
X32452381Y-23369048D01*
X32452381Y-23130952D01*
X32500000Y-23035714D01*
X32547619Y-22988095D01*
X32642857Y-22940476D01*
X32738095Y-22940476D01*
X32880952Y-22988095D01*
X33452381Y-23559524D01*
X33452381Y-22940476D01*
X32547619Y-22559524D02*
X32500000Y-22511905D01*
X32452381Y-22416667D01*
X32452381Y-22178571D01*
X32500000Y-22083333D01*
X32547619Y-22035714D01*
X32642857Y-21988095D01*
X32738095Y-21988095D01*
X32880952Y-22035714D01*
X33452381Y-22607143D01*
X33452381Y-21988095D01*
D14*
X36404762Y-10059524D02*
X36452381Y-9916667D01*
X36452381Y-9678571D01*
X36404762Y-9583333D01*
X36357143Y-9535714D01*
X36261905Y-9488095D01*
X36166667Y-9488095D01*
X36071429Y-9535714D01*
X36023810Y-9583333D01*
X35976190Y-9678571D01*
X35928571Y-9869048D01*
X35880952Y-9964286D01*
X35833333Y-10011905D01*
X35738095Y-10059524D01*
X35642857Y-10059524D01*
X35547619Y-10011905D01*
X35500000Y-9964286D01*
X35452381Y-9869048D01*
X35452381Y-9630952D01*
X35500000Y-9488095D01*
X36452381Y-8535714D02*
X36452381Y-9107143D01*
X36452381Y-8821429D02*
X35452381Y-8821429D01*
X35595238Y-8916667D01*
X35690476Y-9011905D01*
X35738095Y-9107143D01*
X38352381Y-16871429D02*
X38352381Y-16680952D01*
X38400000Y-16585714D01*
X38495238Y-16490476D01*
X38685714Y-16442857D01*
X39019048Y-16442857D01*
X39209524Y-16490476D01*
X39304762Y-16585714D01*
X39352381Y-16680952D01*
X39352381Y-16871429D01*
X39304762Y-16966667D01*
X39209524Y-17061905D01*
X39019048Y-17109524D01*
X38685714Y-17109524D01*
X38495238Y-17061905D01*
X38400000Y-16966667D01*
X38352381Y-16871429D01*
X39352381Y-16014286D02*
X38352381Y-16014286D01*
X39352381Y-15442857D01*
X38352381Y-15442857D01*
D10*
X10651905Y-1392381D02*
X10651905Y-392381D01*
X10890000Y-392381D01*
X11032858Y-440000D01*
X11128096Y-535238D01*
X11175715Y-630476D01*
X11223334Y-820952D01*
X11223334Y-963810D01*
X11175715Y-1154286D01*
X11128096Y-1249524D01*
X11032858Y-1344762D01*
X10890000Y-1392381D01*
X10651905Y-1392381D01*
X12175715Y-1392381D02*
X11604286Y-1392381D01*
X11890000Y-1392381D02*
X11890000Y-392381D01*
X11794762Y-535238D01*
X11699524Y-630476D01*
X11604286Y-678095D01*
X10651905Y-7392381D02*
X10651905Y-6392381D01*
X10890000Y-6392381D01*
X11032858Y-6440000D01*
X11128096Y-6535238D01*
X11175715Y-6630476D01*
X11223334Y-6820952D01*
X11223334Y-6963810D01*
X11175715Y-7154286D01*
X11128096Y-7249524D01*
X11032858Y-7344762D01*
X10890000Y-7392381D01*
X10651905Y-7392381D01*
X11604286Y-6487619D02*
X11651905Y-6440000D01*
X11747143Y-6392381D01*
X11985239Y-6392381D01*
X12080477Y-6440000D01*
X12128096Y-6487619D01*
X12175715Y-6582857D01*
X12175715Y-6678095D01*
X12128096Y-6820952D01*
X11556667Y-7392381D01*
X12175715Y-7392381D01*
X16457143Y-2952381D02*
X16123809Y-2476190D01*
X15885714Y-2952381D02*
X15885714Y-1952381D01*
X16266667Y-1952381D01*
X16361905Y-2000000D01*
X16409524Y-2047619D01*
X16457143Y-2142857D01*
X16457143Y-2285714D01*
X16409524Y-2380952D01*
X16361905Y-2428571D01*
X16266667Y-2476190D01*
X15885714Y-2476190D01*
X16790476Y-1952381D02*
X17409524Y-1952381D01*
X17076190Y-2333333D01*
X17219048Y-2333333D01*
X17314286Y-2380952D01*
X17361905Y-2428571D01*
X17409524Y-2523810D01*
X17409524Y-2761905D01*
X17361905Y-2857143D01*
X17314286Y-2904762D01*
X17219048Y-2952381D01*
X16933333Y-2952381D01*
X16838095Y-2904762D01*
X16790476Y-2857143D01*
X18361905Y-2952381D02*
X17790476Y-2952381D01*
X18076190Y-2952381D02*
X18076190Y-1952381D01*
X17980952Y-2095238D01*
X17885714Y-2190476D01*
X17790476Y-2238095D01*
X16357143Y-8702381D02*
X16023809Y-8226190D01*
X15785714Y-8702381D02*
X15785714Y-7702381D01*
X16166667Y-7702381D01*
X16261905Y-7750000D01*
X16309524Y-7797619D01*
X16357143Y-7892857D01*
X16357143Y-8035714D01*
X16309524Y-8130952D01*
X16261905Y-8178571D01*
X16166667Y-8226190D01*
X15785714Y-8226190D01*
X16690476Y-7702381D02*
X17309524Y-7702381D01*
X16976190Y-8083333D01*
X17119048Y-8083333D01*
X17214286Y-8130952D01*
X17261905Y-8178571D01*
X17309524Y-8273810D01*
X17309524Y-8511905D01*
X17261905Y-8607143D01*
X17214286Y-8654762D01*
X17119048Y-8702381D01*
X16833333Y-8702381D01*
X16738095Y-8654762D01*
X16690476Y-8607143D01*
X17690476Y-7797619D02*
X17738095Y-7750000D01*
X17833333Y-7702381D01*
X18071429Y-7702381D01*
X18166667Y-7750000D01*
X18214286Y-7797619D01*
X18261905Y-7892857D01*
X18261905Y-7988095D01*
X18214286Y-8130952D01*
X17642857Y-8702381D01*
X18261905Y-8702381D01*
X1785715Y-10607143D02*
X1738096Y-10654762D01*
X1595239Y-10702381D01*
X1500001Y-10702381D01*
X1357143Y-10654762D01*
X1261905Y-10559524D01*
X1214286Y-10464286D01*
X1166667Y-10273810D01*
X1166667Y-10130952D01*
X1214286Y-9940476D01*
X1261905Y-9845238D01*
X1357143Y-9750000D01*
X1500001Y-9702381D01*
X1595239Y-9702381D01*
X1738096Y-9750000D01*
X1785715Y-9797619D01*
X2404762Y-9702381D02*
X2595239Y-9702381D01*
X2690477Y-9750000D01*
X2785715Y-9845238D01*
X2833334Y-10035714D01*
X2833334Y-10369048D01*
X2785715Y-10559524D01*
X2690477Y-10654762D01*
X2595239Y-10702381D01*
X2404762Y-10702381D01*
X2309524Y-10654762D01*
X2214286Y-10559524D01*
X2166667Y-10369048D01*
X2166667Y-10035714D01*
X2214286Y-9845238D01*
X2309524Y-9750000D01*
X2404762Y-9702381D01*
X3261905Y-10702381D02*
X3261905Y-9702381D01*
X3833334Y-10702381D01*
X3833334Y-9702381D01*
X4833334Y-10702381D02*
X4261905Y-10702381D01*
X4547619Y-10702381D02*
X4547619Y-9702381D01*
X4452381Y-9845238D01*
X4357143Y-9940476D01*
X4261905Y-9988095D01*
X37652381Y-24242857D02*
X37176190Y-24576191D01*
X37652381Y-24814286D02*
X36652381Y-24814286D01*
X36652381Y-24433333D01*
X36700000Y-24338095D01*
X36747619Y-24290476D01*
X36842857Y-24242857D01*
X36985714Y-24242857D01*
X37080952Y-24290476D01*
X37128571Y-24338095D01*
X37176190Y-24433333D01*
X37176190Y-24814286D01*
X36747619Y-23861905D02*
X36700000Y-23814286D01*
X36652381Y-23719048D01*
X36652381Y-23480952D01*
X36700000Y-23385714D01*
X36747619Y-23338095D01*
X36842857Y-23290476D01*
X36938095Y-23290476D01*
X37080952Y-23338095D01*
X37652381Y-23909524D01*
X37652381Y-23290476D01*
X36652381Y-22957143D02*
X36652381Y-22338095D01*
X37033333Y-22671429D01*
X37033333Y-22528571D01*
X37080952Y-22433333D01*
X37128571Y-22385714D01*
X37223810Y-22338095D01*
X37461905Y-22338095D01*
X37557143Y-22385714D01*
X37604762Y-22433333D01*
X37652381Y-22528571D01*
X37652381Y-22814286D01*
X37604762Y-22909524D01*
X37557143Y-22957143D01*
X39652381Y-23542857D02*
X39176190Y-23876191D01*
X39652381Y-24114286D02*
X38652381Y-24114286D01*
X38652381Y-23733333D01*
X38700000Y-23638095D01*
X38747619Y-23590476D01*
X38842857Y-23542857D01*
X38985714Y-23542857D01*
X39080952Y-23590476D01*
X39128571Y-23638095D01*
X39176190Y-23733333D01*
X39176190Y-24114286D01*
X38747619Y-23161905D02*
X38700000Y-23114286D01*
X38652381Y-23019048D01*
X38652381Y-22780952D01*
X38700000Y-22685714D01*
X38747619Y-22638095D01*
X38842857Y-22590476D01*
X38938095Y-22590476D01*
X39080952Y-22638095D01*
X39652381Y-23209524D01*
X39652381Y-22590476D01*
X38985714Y-21733333D02*
X39652381Y-21733333D01*
X38604762Y-21971429D02*
X39319048Y-22209524D01*
X39319048Y-21590476D01*
D15*
X40188838Y-22194419D02*
X40878267Y-22194419D01*
X41016152Y-22240381D01*
X41108076Y-22332305D01*
X41154038Y-22470190D01*
X41154038Y-22562114D01*
X41154038Y-21229220D02*
X41154038Y-21780762D01*
X41154038Y-21504991D02*
X40188838Y-21504991D01*
X40326724Y-21596915D01*
X40418648Y-21688839D01*
X40464610Y-21780762D01*
X41154038Y-20309982D02*
X41154038Y-20861524D01*
X41154038Y-20585753D02*
X40188838Y-20585753D01*
X40326724Y-20677677D01*
X40418648Y-20769601D01*
X40464610Y-20861524D01*
D10*
X33385715Y-7757143D02*
X33338096Y-7804762D01*
X33195239Y-7852381D01*
X33100001Y-7852381D01*
X32957143Y-7804762D01*
X32861905Y-7709524D01*
X32814286Y-7614286D01*
X32766667Y-7423810D01*
X32766667Y-7280952D01*
X32814286Y-7090476D01*
X32861905Y-6995238D01*
X32957143Y-6900000D01*
X33100001Y-6852381D01*
X33195239Y-6852381D01*
X33338096Y-6900000D01*
X33385715Y-6947619D01*
X34004762Y-6852381D02*
X34195239Y-6852381D01*
X34290477Y-6900000D01*
X34385715Y-6995238D01*
X34433334Y-7185714D01*
X34433334Y-7519048D01*
X34385715Y-7709524D01*
X34290477Y-7804762D01*
X34195239Y-7852381D01*
X34004762Y-7852381D01*
X33909524Y-7804762D01*
X33814286Y-7709524D01*
X33766667Y-7519048D01*
X33766667Y-7185714D01*
X33814286Y-6995238D01*
X33909524Y-6900000D01*
X34004762Y-6852381D01*
X34861905Y-7852381D02*
X34861905Y-6852381D01*
X35433334Y-7852381D01*
X35433334Y-6852381D01*
X35861905Y-6947619D02*
X35909524Y-6900000D01*
X36004762Y-6852381D01*
X36242858Y-6852381D01*
X36338096Y-6900000D01*
X36385715Y-6947619D01*
X36433334Y-7042857D01*
X36433334Y-7138095D01*
X36385715Y-7280952D01*
X35814286Y-7852381D01*
X36433334Y-7852381D01*
%LPC*%
D16*
X5000000Y-29500000D03*
X5000000Y-4500000D03*
X45000000Y-4500000D03*
X45000000Y-29500000D03*
D17*
X20050000Y-28000000D03*
X21950000Y-28000000D03*
D18*
X21498860Y-5851660D03*
X23000000Y-5851660D03*
X24501140Y-5851660D03*
D19*
X23000000Y-2900180D03*
D10*
G36*
X24200760Y-4174650D02*
X23700380Y-5323950D01*
X22299620Y-5323950D01*
X21799240Y-4174650D01*
X24200760Y-4174650D01*
X24200760Y-4174650D01*
G37*
D20*
X28750000Y-13600000D03*
X28250000Y-13600000D03*
X27750000Y-13600000D03*
X27250000Y-13600000D03*
X26750000Y-13600000D03*
X26250000Y-13600000D03*
X25750000Y-13600000D03*
X25250000Y-13600000D03*
X24750000Y-13600000D03*
X24250000Y-13600000D03*
X23750000Y-13600000D03*
X23250000Y-13600000D03*
D21*
X22600000Y-14250000D03*
X22600000Y-14750000D03*
X22600000Y-15250000D03*
X22600000Y-15750000D03*
X22600000Y-16250000D03*
X22600000Y-16750000D03*
X22600000Y-17250000D03*
X22600000Y-17750000D03*
X22600000Y-18250000D03*
X22600000Y-18750000D03*
X22600000Y-19250000D03*
X22600000Y-19750000D03*
D20*
X23250000Y-20400000D03*
X23750000Y-20400000D03*
X24250000Y-20400000D03*
X24750000Y-20400000D03*
X25250000Y-20400000D03*
X25750000Y-20400000D03*
X26250000Y-20400000D03*
X26750000Y-20400000D03*
X27250000Y-20400000D03*
X27750000Y-20400000D03*
X28250000Y-20400000D03*
X28750000Y-20400000D03*
D21*
X29400000Y-19750000D03*
X29400000Y-19250000D03*
X29400000Y-18750000D03*
X29400000Y-18250000D03*
X29400000Y-17750000D03*
X29400000Y-17250000D03*
X29400000Y-16750000D03*
X29400000Y-16250000D03*
X29400000Y-15750000D03*
X29400000Y-15250000D03*
X29400000Y-14750000D03*
X29400000Y-14250000D03*
D22*
X24068750Y-18931250D03*
X25356250Y-18931250D03*
X26643750Y-18931250D03*
X27931250Y-18931250D03*
X24068750Y-17643750D03*
X25356250Y-17643750D03*
X26643750Y-17643750D03*
X27931250Y-17643750D03*
X24068750Y-16356250D03*
X25356250Y-16356250D03*
X26643750Y-16356250D03*
X27931250Y-16356250D03*
X24068750Y-15068750D03*
X25356250Y-15068750D03*
X26643750Y-15068750D03*
X27931250Y-15068750D03*
D23*
X13500000Y-23000000D03*
X13500000Y-28080000D03*
D24*
X25000000Y-31000000D03*
X29000000Y-31000000D03*
X37000000Y-31000000D03*
X33000000Y-31000000D03*
D25*
X22500000Y-8500000D03*
X20500000Y-8500000D03*
X24400000Y-8500000D03*
X26400000Y-8500000D03*
D26*
X17750000Y-19000000D03*
X16250000Y-19000000D03*
D27*
X23500000Y-25250000D03*
X23500000Y-23750000D03*
D26*
X34250000Y-14500000D03*
X32750000Y-14500000D03*
X19750000Y-13750000D03*
X18250000Y-13750000D03*
X17750000Y-17000000D03*
X16250000Y-17000000D03*
D27*
X21000000Y-22250000D03*
X21000000Y-23750000D03*
X25750000Y-25250000D03*
X25750000Y-23750000D03*
D26*
X30500000Y-22250000D03*
X32000000Y-22250000D03*
X34250000Y-16500000D03*
X32750000Y-16500000D03*
D27*
X30750000Y-10750000D03*
X30750000Y-12250000D03*
X17500000Y-23000000D03*
X17500000Y-21500000D03*
X17500000Y-25000000D03*
X17500000Y-26500000D03*
D28*
X30000000Y-28500000D03*
X30000000Y-27000000D03*
X27500000Y-28500000D03*
X27500000Y-27000000D03*
X35000000Y-19250000D03*
X35000000Y-20750000D03*
X33000000Y-19250000D03*
X33000000Y-20750000D03*
D29*
X46560000Y-13020000D03*
X46560000Y-10480000D03*
X38940000Y-10480000D03*
X38940000Y-13020000D03*
D30*
X13300000Y-4000000D03*
D31*
X10760000Y-4000000D03*
D30*
X13300000Y-10000000D03*
D31*
X10760000Y-10000000D03*
D32*
X17750000Y-4000000D03*
X16250000Y-4000000D03*
X17750000Y-10000000D03*
X16250000Y-10000000D03*
D33*
X4400000Y-14800360D03*
X4400000Y-19199640D03*
D34*
X1400260Y-21447540D03*
X1400260Y-12552460D03*
D35*
X7298140Y-21447540D03*
X7298140Y-12552460D03*
D36*
X7399740Y-15402340D03*
X7399740Y-16202440D03*
X7399740Y-17000000D03*
X7399740Y-17797560D03*
X7399740Y-18597660D03*
D28*
X37000000Y-19250000D03*
X37000000Y-20750000D03*
X39000000Y-19250000D03*
X39000000Y-20750000D03*
D29*
X45000000Y-18460000D03*
X45000000Y-21000000D03*
X45000000Y-23540000D03*
D37*
X30500000Y-3000000D03*
D38*
X32500000Y-3000000D03*
X34500000Y-3000000D03*
X36500000Y-3000000D03*
X38500000Y-3000000D03*
M02*
