%FSLAX45Y45*%
G04 Gerber Fmt 4.5, Leading zero omitted, Abs format (unit mm)*
G04 Created by KiCad (PCBNEW 4.0.1-stable) date 10/12/16 20:15:14*
%MOMM*%
G01*
G04 APERTURE LIST*
%ADD10C,0.127000*%
%ADD11C,0.150000*%
%ADD12C,0.200000*%
%ADD13C,0.300000*%
G04 APERTURE END LIST*
D10*
D11*
X0Y-3400000D02*
X0Y0D01*
X4900000Y-3400000D02*
X0Y-3400000D01*
X4900000Y0D02*
X4900000Y-3400000D01*
X0Y0D02*
X4900000Y0D01*
D12*
X395042Y-1435078D02*
X484958Y-1524994D01*
X484958Y-1435078D02*
X395042Y-1524994D01*
X395042Y-1875006D02*
X484958Y-1964922D01*
X484958Y-1875006D02*
X395042Y-1964922D01*
X660000Y-450000D02*
G75*
G03X660000Y-450000I-160000J0D01*
G01*
X660000Y-2950000D02*
G75*
G03X660000Y-2950000I-160000J0D01*
G01*
X4660000Y-450000D02*
G75*
G03X4660000Y-450000I-160000J0D01*
G01*
X4660000Y-2950000D02*
G75*
G03X4660000Y-2950000I-160000J0D01*
G01*
D13*
X263929Y-3873214D02*
X263929Y-3573214D01*
X335357Y-3573214D01*
X378214Y-3587500D01*
X406786Y-3616071D01*
X421071Y-3644643D01*
X435357Y-3701786D01*
X435357Y-3744643D01*
X421071Y-3801786D01*
X406786Y-3830357D01*
X378214Y-3858929D01*
X335357Y-3873214D01*
X263929Y-3873214D01*
X563929Y-3873214D02*
X563929Y-3673214D01*
X563929Y-3730357D02*
X578214Y-3701786D01*
X592500Y-3687500D01*
X621071Y-3673214D01*
X649643Y-3673214D01*
X749643Y-3873214D02*
X749643Y-3673214D01*
X749643Y-3573214D02*
X735357Y-3587500D01*
X749643Y-3601786D01*
X763928Y-3587500D01*
X749643Y-3573214D01*
X749643Y-3601786D01*
X935357Y-3873214D02*
X906786Y-3858929D01*
X892500Y-3830357D01*
X892500Y-3573214D01*
X1092500Y-3873214D02*
X1063929Y-3858929D01*
X1049643Y-3830357D01*
X1049643Y-3573214D01*
X1435357Y-3873214D02*
X1435357Y-3573214D01*
X1535357Y-3787500D01*
X1635357Y-3573214D01*
X1635357Y-3873214D01*
X1906786Y-3873214D02*
X1906786Y-3716071D01*
X1892500Y-3687500D01*
X1863928Y-3673214D01*
X1806786Y-3673214D01*
X1778214Y-3687500D01*
X1906786Y-3858929D02*
X1878214Y-3873214D01*
X1806786Y-3873214D01*
X1778214Y-3858929D01*
X1763928Y-3830357D01*
X1763928Y-3801786D01*
X1778214Y-3773214D01*
X1806786Y-3758929D01*
X1878214Y-3758929D01*
X1906786Y-3744643D01*
X2049643Y-3673214D02*
X2049643Y-3973214D01*
X2049643Y-3687500D02*
X2078214Y-3673214D01*
X2135357Y-3673214D01*
X2163929Y-3687500D01*
X2178214Y-3701786D01*
X2192500Y-3730357D01*
X2192500Y-3816071D01*
X2178214Y-3844643D01*
X2163929Y-3858929D01*
X2135357Y-3873214D01*
X2078214Y-3873214D01*
X2049643Y-3858929D01*
X2321071Y-3844643D02*
X2335357Y-3858929D01*
X2321071Y-3873214D01*
X2306786Y-3858929D01*
X2321071Y-3844643D01*
X2321071Y-3873214D01*
X2321071Y-3687500D02*
X2335357Y-3701786D01*
X2321071Y-3716071D01*
X2306786Y-3701786D01*
X2321071Y-3687500D01*
X2321071Y-3716071D01*
X-97416Y-4322542D02*
X-7500Y-4412458D01*
X-7500Y-4322542D02*
X-97416Y-4412458D01*
X321071Y-4203214D02*
X349643Y-4203214D01*
X378214Y-4217500D01*
X392500Y-4231786D01*
X406786Y-4260357D01*
X421071Y-4317500D01*
X421071Y-4388929D01*
X406786Y-4446072D01*
X392500Y-4474643D01*
X378214Y-4488929D01*
X349643Y-4503214D01*
X321071Y-4503214D01*
X292500Y-4488929D01*
X278214Y-4474643D01*
X263929Y-4446072D01*
X249643Y-4388929D01*
X249643Y-4317500D01*
X263929Y-4260357D01*
X278214Y-4231786D01*
X292500Y-4217500D01*
X321071Y-4203214D01*
X549643Y-4474643D02*
X563929Y-4488929D01*
X549643Y-4503214D01*
X535357Y-4488929D01*
X549643Y-4474643D01*
X549643Y-4503214D01*
X706786Y-4503214D02*
X763928Y-4503214D01*
X792500Y-4488929D01*
X806786Y-4474643D01*
X835357Y-4431786D01*
X849643Y-4374643D01*
X849643Y-4260357D01*
X835357Y-4231786D01*
X821071Y-4217500D01*
X792500Y-4203214D01*
X735357Y-4203214D01*
X706786Y-4217500D01*
X692500Y-4231786D01*
X678214Y-4260357D01*
X678214Y-4331786D01*
X692500Y-4360357D01*
X706786Y-4374643D01*
X735357Y-4388929D01*
X792500Y-4388929D01*
X821071Y-4374643D01*
X835357Y-4360357D01*
X849643Y-4331786D01*
X1035357Y-4203214D02*
X1063929Y-4203214D01*
X1092500Y-4217500D01*
X1106786Y-4231786D01*
X1121071Y-4260357D01*
X1135357Y-4317500D01*
X1135357Y-4388929D01*
X1121071Y-4446072D01*
X1106786Y-4474643D01*
X1092500Y-4488929D01*
X1063929Y-4503214D01*
X1035357Y-4503214D01*
X1006786Y-4488929D01*
X992500Y-4474643D01*
X978214Y-4446072D01*
X963928Y-4388929D01*
X963928Y-4317500D01*
X978214Y-4260357D01*
X992500Y-4231786D01*
X1006786Y-4217500D01*
X1035357Y-4203214D01*
X1263929Y-4503214D02*
X1263929Y-4303214D01*
X1263929Y-4331786D02*
X1278214Y-4317500D01*
X1306786Y-4303214D01*
X1349643Y-4303214D01*
X1378214Y-4317500D01*
X1392500Y-4346072D01*
X1392500Y-4503214D01*
X1392500Y-4346072D02*
X1406786Y-4317500D01*
X1435357Y-4303214D01*
X1478214Y-4303214D01*
X1506786Y-4317500D01*
X1521071Y-4346072D01*
X1521071Y-4503214D01*
X1663928Y-4503214D02*
X1663928Y-4303214D01*
X1663928Y-4331786D02*
X1678214Y-4317500D01*
X1706786Y-4303214D01*
X1749643Y-4303214D01*
X1778214Y-4317500D01*
X1792500Y-4346072D01*
X1792500Y-4503214D01*
X1792500Y-4346072D02*
X1806786Y-4317500D01*
X1835357Y-4303214D01*
X1878214Y-4303214D01*
X1906786Y-4317500D01*
X1921071Y-4346072D01*
X1921071Y-4503214D01*
X2506786Y-4188929D02*
X2249643Y-4574643D01*
X2892500Y-4203214D02*
X2921071Y-4203214D01*
X2949643Y-4217500D01*
X2963928Y-4231786D01*
X2978214Y-4260357D01*
X2992500Y-4317500D01*
X2992500Y-4388929D01*
X2978214Y-4446072D01*
X2963928Y-4474643D01*
X2949643Y-4488929D01*
X2921071Y-4503214D01*
X2892500Y-4503214D01*
X2863928Y-4488929D01*
X2849643Y-4474643D01*
X2835357Y-4446072D01*
X2821071Y-4388929D01*
X2821071Y-4317500D01*
X2835357Y-4260357D01*
X2849643Y-4231786D01*
X2863928Y-4217500D01*
X2892500Y-4203214D01*
X3121071Y-4474643D02*
X3135357Y-4488929D01*
X3121071Y-4503214D01*
X3106786Y-4488929D01*
X3121071Y-4474643D01*
X3121071Y-4503214D01*
X3321071Y-4203214D02*
X3349643Y-4203214D01*
X3378214Y-4217500D01*
X3392500Y-4231786D01*
X3406785Y-4260357D01*
X3421071Y-4317500D01*
X3421071Y-4388929D01*
X3406785Y-4446072D01*
X3392500Y-4474643D01*
X3378214Y-4488929D01*
X3349643Y-4503214D01*
X3321071Y-4503214D01*
X3292500Y-4488929D01*
X3278214Y-4474643D01*
X3263928Y-4446072D01*
X3249643Y-4388929D01*
X3249643Y-4317500D01*
X3263928Y-4260357D01*
X3278214Y-4231786D01*
X3292500Y-4217500D01*
X3321071Y-4203214D01*
X3521071Y-4203214D02*
X3706785Y-4203214D01*
X3606785Y-4317500D01*
X3649643Y-4317500D01*
X3678214Y-4331786D01*
X3692500Y-4346072D01*
X3706785Y-4374643D01*
X3706785Y-4446072D01*
X3692500Y-4474643D01*
X3678214Y-4488929D01*
X3649643Y-4503214D01*
X3563928Y-4503214D01*
X3535357Y-4488929D01*
X3521071Y-4474643D01*
X3978214Y-4203214D02*
X3835357Y-4203214D01*
X3821071Y-4346072D01*
X3835357Y-4331786D01*
X3863928Y-4317500D01*
X3935357Y-4317500D01*
X3963928Y-4331786D01*
X3978214Y-4346072D01*
X3992500Y-4374643D01*
X3992500Y-4446072D01*
X3978214Y-4474643D01*
X3963928Y-4488929D01*
X3935357Y-4503214D01*
X3863928Y-4503214D01*
X3835357Y-4488929D01*
X3821071Y-4474643D01*
X4106786Y-4203214D02*
X4106786Y-4260357D01*
X4221071Y-4203214D02*
X4221071Y-4260357D01*
X4663928Y-4617500D02*
X4649643Y-4603214D01*
X4621071Y-4560357D01*
X4606786Y-4531786D01*
X4592500Y-4488929D01*
X4578214Y-4417500D01*
X4578214Y-4360357D01*
X4592500Y-4288929D01*
X4606786Y-4246072D01*
X4621071Y-4217500D01*
X4649643Y-4174643D01*
X4663928Y-4160357D01*
X4763928Y-4231786D02*
X4778214Y-4217500D01*
X4806786Y-4203214D01*
X4878214Y-4203214D01*
X4906786Y-4217500D01*
X4921071Y-4231786D01*
X4935357Y-4260357D01*
X4935357Y-4288929D01*
X4921071Y-4331786D01*
X4749643Y-4503214D01*
X4935357Y-4503214D01*
X5292500Y-4503214D02*
X5292500Y-4203214D01*
X5421071Y-4503214D02*
X5421071Y-4346072D01*
X5406786Y-4317500D01*
X5378214Y-4303214D01*
X5335357Y-4303214D01*
X5306786Y-4317500D01*
X5292500Y-4331786D01*
X5606785Y-4503214D02*
X5578214Y-4488929D01*
X5563928Y-4474643D01*
X5549643Y-4446072D01*
X5549643Y-4360357D01*
X5563928Y-4331786D01*
X5578214Y-4317500D01*
X5606785Y-4303214D01*
X5649643Y-4303214D01*
X5678214Y-4317500D01*
X5692500Y-4331786D01*
X5706785Y-4360357D01*
X5706785Y-4446072D01*
X5692500Y-4474643D01*
X5678214Y-4488929D01*
X5649643Y-4503214D01*
X5606785Y-4503214D01*
X5878214Y-4503214D02*
X5849643Y-4488929D01*
X5835357Y-4460357D01*
X5835357Y-4203214D01*
X6106786Y-4488929D02*
X6078214Y-4503214D01*
X6021071Y-4503214D01*
X5992500Y-4488929D01*
X5978214Y-4460357D01*
X5978214Y-4346072D01*
X5992500Y-4317500D01*
X6021071Y-4303214D01*
X6078214Y-4303214D01*
X6106786Y-4317500D01*
X6121071Y-4346072D01*
X6121071Y-4374643D01*
X5978214Y-4403214D01*
X6235357Y-4488929D02*
X6263928Y-4503214D01*
X6321071Y-4503214D01*
X6349643Y-4488929D01*
X6363928Y-4460357D01*
X6363928Y-4446072D01*
X6349643Y-4417500D01*
X6321071Y-4403214D01*
X6278214Y-4403214D01*
X6249643Y-4388929D01*
X6235357Y-4360357D01*
X6235357Y-4346072D01*
X6249643Y-4317500D01*
X6278214Y-4303214D01*
X6321071Y-4303214D01*
X6349643Y-4317500D01*
X6463928Y-4617500D02*
X6478214Y-4603214D01*
X6506786Y-4560357D01*
X6521071Y-4531786D01*
X6535357Y-4488929D01*
X6549643Y-4417500D01*
X6549643Y-4360357D01*
X6535357Y-4288929D01*
X6521071Y-4246072D01*
X6506786Y-4217500D01*
X6478214Y-4174643D01*
X6463928Y-4160357D01*
X7006786Y-4617500D02*
X6992500Y-4603214D01*
X6963928Y-4560357D01*
X6949643Y-4531786D01*
X6935357Y-4488929D01*
X6921071Y-4417500D01*
X6921071Y-4360357D01*
X6935357Y-4288929D01*
X6949643Y-4246072D01*
X6963928Y-4217500D01*
X6992500Y-4174643D01*
X7006786Y-4160357D01*
X7121071Y-4303214D02*
X7121071Y-4503214D01*
X7121071Y-4331786D02*
X7135357Y-4317500D01*
X7163928Y-4303214D01*
X7206786Y-4303214D01*
X7235357Y-4317500D01*
X7249643Y-4346072D01*
X7249643Y-4503214D01*
X7435357Y-4503214D02*
X7406786Y-4488929D01*
X7392500Y-4474643D01*
X7378214Y-4446072D01*
X7378214Y-4360357D01*
X7392500Y-4331786D01*
X7406786Y-4317500D01*
X7435357Y-4303214D01*
X7478214Y-4303214D01*
X7506786Y-4317500D01*
X7521071Y-4331786D01*
X7535357Y-4360357D01*
X7535357Y-4446072D01*
X7521071Y-4474643D01*
X7506786Y-4488929D01*
X7478214Y-4503214D01*
X7435357Y-4503214D01*
X7621071Y-4303214D02*
X7735357Y-4303214D01*
X7663928Y-4203214D02*
X7663928Y-4460357D01*
X7678214Y-4488929D01*
X7706786Y-4503214D01*
X7735357Y-4503214D01*
X8063928Y-4303214D02*
X8063928Y-4603214D01*
X8063928Y-4317500D02*
X8092500Y-4303214D01*
X8149643Y-4303214D01*
X8178214Y-4317500D01*
X8192500Y-4331786D01*
X8206786Y-4360357D01*
X8206786Y-4446072D01*
X8192500Y-4474643D01*
X8178214Y-4488929D01*
X8149643Y-4503214D01*
X8092500Y-4503214D01*
X8063928Y-4488929D01*
X8378214Y-4503214D02*
X8349643Y-4488929D01*
X8335357Y-4460357D01*
X8335357Y-4203214D01*
X8621071Y-4503214D02*
X8621071Y-4346072D01*
X8606786Y-4317500D01*
X8578214Y-4303214D01*
X8521071Y-4303214D01*
X8492500Y-4317500D01*
X8621071Y-4488929D02*
X8592500Y-4503214D01*
X8521071Y-4503214D01*
X8492500Y-4488929D01*
X8478214Y-4460357D01*
X8478214Y-4431786D01*
X8492500Y-4403214D01*
X8521071Y-4388929D01*
X8592500Y-4388929D01*
X8621071Y-4374643D01*
X8721071Y-4303214D02*
X8835357Y-4303214D01*
X8763929Y-4203214D02*
X8763929Y-4460357D01*
X8778214Y-4488929D01*
X8806786Y-4503214D01*
X8835357Y-4503214D01*
X9049643Y-4488929D02*
X9021072Y-4503214D01*
X8963929Y-4503214D01*
X8935357Y-4488929D01*
X8921072Y-4460357D01*
X8921072Y-4346072D01*
X8935357Y-4317500D01*
X8963929Y-4303214D01*
X9021072Y-4303214D01*
X9049643Y-4317500D01*
X9063929Y-4346072D01*
X9063929Y-4374643D01*
X8921072Y-4403214D01*
X9321072Y-4503214D02*
X9321072Y-4203214D01*
X9321072Y-4488929D02*
X9292500Y-4503214D01*
X9235357Y-4503214D01*
X9206786Y-4488929D01*
X9192500Y-4474643D01*
X9178214Y-4446072D01*
X9178214Y-4360357D01*
X9192500Y-4331786D01*
X9206786Y-4317500D01*
X9235357Y-4303214D01*
X9292500Y-4303214D01*
X9321072Y-4317500D01*
X9435357Y-4617500D02*
X9449643Y-4603214D01*
X9478214Y-4560357D01*
X9492500Y-4531786D01*
X9506786Y-4488929D01*
X9521072Y-4417500D01*
X9521072Y-4360357D01*
X9506786Y-4288929D01*
X9492500Y-4246072D01*
X9478214Y-4217500D01*
X9449643Y-4174643D01*
X9435357Y-4160357D01*
X-7500Y-4763500D02*
G75*
G03X-7500Y-4763500I-160000J0D01*
G01*
X235357Y-4599214D02*
X421071Y-4599214D01*
X321071Y-4713500D01*
X363928Y-4713500D01*
X392500Y-4727786D01*
X406786Y-4742072D01*
X421071Y-4770643D01*
X421071Y-4842072D01*
X406786Y-4870643D01*
X392500Y-4884929D01*
X363928Y-4899214D01*
X278214Y-4899214D01*
X249643Y-4884929D01*
X235357Y-4870643D01*
X549643Y-4870643D02*
X563929Y-4884929D01*
X549643Y-4899214D01*
X535357Y-4884929D01*
X549643Y-4870643D01*
X549643Y-4899214D01*
X678214Y-4627786D02*
X692500Y-4613500D01*
X721071Y-4599214D01*
X792500Y-4599214D01*
X821071Y-4613500D01*
X835357Y-4627786D01*
X849643Y-4656357D01*
X849643Y-4684929D01*
X835357Y-4727786D01*
X663928Y-4899214D01*
X849643Y-4899214D01*
X1035357Y-4599214D02*
X1063929Y-4599214D01*
X1092500Y-4613500D01*
X1106786Y-4627786D01*
X1121071Y-4656357D01*
X1135357Y-4713500D01*
X1135357Y-4784929D01*
X1121071Y-4842072D01*
X1106786Y-4870643D01*
X1092500Y-4884929D01*
X1063929Y-4899214D01*
X1035357Y-4899214D01*
X1006786Y-4884929D01*
X992500Y-4870643D01*
X978214Y-4842072D01*
X963928Y-4784929D01*
X963928Y-4713500D01*
X978214Y-4656357D01*
X992500Y-4627786D01*
X1006786Y-4613500D01*
X1035357Y-4599214D01*
X1263929Y-4899214D02*
X1263929Y-4699214D01*
X1263929Y-4727786D02*
X1278214Y-4713500D01*
X1306786Y-4699214D01*
X1349643Y-4699214D01*
X1378214Y-4713500D01*
X1392500Y-4742072D01*
X1392500Y-4899214D01*
X1392500Y-4742072D02*
X1406786Y-4713500D01*
X1435357Y-4699214D01*
X1478214Y-4699214D01*
X1506786Y-4713500D01*
X1521071Y-4742072D01*
X1521071Y-4899214D01*
X1663928Y-4899214D02*
X1663928Y-4699214D01*
X1663928Y-4727786D02*
X1678214Y-4713500D01*
X1706786Y-4699214D01*
X1749643Y-4699214D01*
X1778214Y-4713500D01*
X1792500Y-4742072D01*
X1792500Y-4899214D01*
X1792500Y-4742072D02*
X1806786Y-4713500D01*
X1835357Y-4699214D01*
X1878214Y-4699214D01*
X1906786Y-4713500D01*
X1921071Y-4742072D01*
X1921071Y-4899214D01*
X2506786Y-4584929D02*
X2249643Y-4970643D01*
X2892500Y-4599214D02*
X2921071Y-4599214D01*
X2949643Y-4613500D01*
X2963928Y-4627786D01*
X2978214Y-4656357D01*
X2992500Y-4713500D01*
X2992500Y-4784929D01*
X2978214Y-4842072D01*
X2963928Y-4870643D01*
X2949643Y-4884929D01*
X2921071Y-4899214D01*
X2892500Y-4899214D01*
X2863928Y-4884929D01*
X2849643Y-4870643D01*
X2835357Y-4842072D01*
X2821071Y-4784929D01*
X2821071Y-4713500D01*
X2835357Y-4656357D01*
X2849643Y-4627786D01*
X2863928Y-4613500D01*
X2892500Y-4599214D01*
X3121071Y-4870643D02*
X3135357Y-4884929D01*
X3121071Y-4899214D01*
X3106786Y-4884929D01*
X3121071Y-4870643D01*
X3121071Y-4899214D01*
X3421071Y-4899214D02*
X3249643Y-4899214D01*
X3335357Y-4899214D02*
X3335357Y-4599214D01*
X3306785Y-4642072D01*
X3278214Y-4670643D01*
X3249643Y-4684929D01*
X3535357Y-4627786D02*
X3549643Y-4613500D01*
X3578214Y-4599214D01*
X3649643Y-4599214D01*
X3678214Y-4613500D01*
X3692500Y-4627786D01*
X3706785Y-4656357D01*
X3706785Y-4684929D01*
X3692500Y-4727786D01*
X3521071Y-4899214D01*
X3706785Y-4899214D01*
X3963928Y-4599214D02*
X3906785Y-4599214D01*
X3878214Y-4613500D01*
X3863928Y-4627786D01*
X3835357Y-4670643D01*
X3821071Y-4727786D01*
X3821071Y-4842072D01*
X3835357Y-4870643D01*
X3849643Y-4884929D01*
X3878214Y-4899214D01*
X3935357Y-4899214D01*
X3963928Y-4884929D01*
X3978214Y-4870643D01*
X3992500Y-4842072D01*
X3992500Y-4770643D01*
X3978214Y-4742072D01*
X3963928Y-4727786D01*
X3935357Y-4713500D01*
X3878214Y-4713500D01*
X3849643Y-4727786D01*
X3835357Y-4742072D01*
X3821071Y-4770643D01*
X4106786Y-4599214D02*
X4106786Y-4656357D01*
X4221071Y-4599214D02*
X4221071Y-4656357D01*
X4663928Y-5013500D02*
X4649643Y-4999214D01*
X4621071Y-4956357D01*
X4606786Y-4927786D01*
X4592500Y-4884929D01*
X4578214Y-4813500D01*
X4578214Y-4756357D01*
X4592500Y-4684929D01*
X4606786Y-4642072D01*
X4621071Y-4613500D01*
X4649643Y-4570643D01*
X4663928Y-4556357D01*
X4906786Y-4699214D02*
X4906786Y-4899214D01*
X4835357Y-4584929D02*
X4763928Y-4799214D01*
X4949643Y-4799214D01*
X5292500Y-4899214D02*
X5292500Y-4599214D01*
X5421071Y-4899214D02*
X5421071Y-4742072D01*
X5406786Y-4713500D01*
X5378214Y-4699214D01*
X5335357Y-4699214D01*
X5306786Y-4713500D01*
X5292500Y-4727786D01*
X5606785Y-4899214D02*
X5578214Y-4884929D01*
X5563928Y-4870643D01*
X5549643Y-4842072D01*
X5549643Y-4756357D01*
X5563928Y-4727786D01*
X5578214Y-4713500D01*
X5606785Y-4699214D01*
X5649643Y-4699214D01*
X5678214Y-4713500D01*
X5692500Y-4727786D01*
X5706785Y-4756357D01*
X5706785Y-4842072D01*
X5692500Y-4870643D01*
X5678214Y-4884929D01*
X5649643Y-4899214D01*
X5606785Y-4899214D01*
X5878214Y-4899214D02*
X5849643Y-4884929D01*
X5835357Y-4856357D01*
X5835357Y-4599214D01*
X6106786Y-4884929D02*
X6078214Y-4899214D01*
X6021071Y-4899214D01*
X5992500Y-4884929D01*
X5978214Y-4856357D01*
X5978214Y-4742072D01*
X5992500Y-4713500D01*
X6021071Y-4699214D01*
X6078214Y-4699214D01*
X6106786Y-4713500D01*
X6121071Y-4742072D01*
X6121071Y-4770643D01*
X5978214Y-4799214D01*
X6235357Y-4884929D02*
X6263928Y-4899214D01*
X6321071Y-4899214D01*
X6349643Y-4884929D01*
X6363928Y-4856357D01*
X6363928Y-4842072D01*
X6349643Y-4813500D01*
X6321071Y-4799214D01*
X6278214Y-4799214D01*
X6249643Y-4784929D01*
X6235357Y-4756357D01*
X6235357Y-4742072D01*
X6249643Y-4713500D01*
X6278214Y-4699214D01*
X6321071Y-4699214D01*
X6349643Y-4713500D01*
X6463928Y-5013500D02*
X6478214Y-4999214D01*
X6506786Y-4956357D01*
X6521071Y-4927786D01*
X6535357Y-4884929D01*
X6549643Y-4813500D01*
X6549643Y-4756357D01*
X6535357Y-4684929D01*
X6521071Y-4642072D01*
X6506786Y-4613500D01*
X6478214Y-4570643D01*
X6463928Y-4556357D01*
X7006786Y-5013500D02*
X6992500Y-4999214D01*
X6963928Y-4956357D01*
X6949643Y-4927786D01*
X6935357Y-4884929D01*
X6921071Y-4813500D01*
X6921071Y-4756357D01*
X6935357Y-4684929D01*
X6949643Y-4642072D01*
X6963928Y-4613500D01*
X6992500Y-4570643D01*
X7006786Y-4556357D01*
X7121071Y-4699214D02*
X7121071Y-4899214D01*
X7121071Y-4727786D02*
X7135357Y-4713500D01*
X7163928Y-4699214D01*
X7206786Y-4699214D01*
X7235357Y-4713500D01*
X7249643Y-4742072D01*
X7249643Y-4899214D01*
X7435357Y-4899214D02*
X7406786Y-4884929D01*
X7392500Y-4870643D01*
X7378214Y-4842072D01*
X7378214Y-4756357D01*
X7392500Y-4727786D01*
X7406786Y-4713500D01*
X7435357Y-4699214D01*
X7478214Y-4699214D01*
X7506786Y-4713500D01*
X7521071Y-4727786D01*
X7535357Y-4756357D01*
X7535357Y-4842072D01*
X7521071Y-4870643D01*
X7506786Y-4884929D01*
X7478214Y-4899214D01*
X7435357Y-4899214D01*
X7621071Y-4699214D02*
X7735357Y-4699214D01*
X7663928Y-4599214D02*
X7663928Y-4856357D01*
X7678214Y-4884929D01*
X7706786Y-4899214D01*
X7735357Y-4899214D01*
X8063928Y-4699214D02*
X8063928Y-4999214D01*
X8063928Y-4713500D02*
X8092500Y-4699214D01*
X8149643Y-4699214D01*
X8178214Y-4713500D01*
X8192500Y-4727786D01*
X8206786Y-4756357D01*
X8206786Y-4842072D01*
X8192500Y-4870643D01*
X8178214Y-4884929D01*
X8149643Y-4899214D01*
X8092500Y-4899214D01*
X8063928Y-4884929D01*
X8378214Y-4899214D02*
X8349643Y-4884929D01*
X8335357Y-4856357D01*
X8335357Y-4599214D01*
X8621071Y-4899214D02*
X8621071Y-4742072D01*
X8606786Y-4713500D01*
X8578214Y-4699214D01*
X8521071Y-4699214D01*
X8492500Y-4713500D01*
X8621071Y-4884929D02*
X8592500Y-4899214D01*
X8521071Y-4899214D01*
X8492500Y-4884929D01*
X8478214Y-4856357D01*
X8478214Y-4827786D01*
X8492500Y-4799214D01*
X8521071Y-4784929D01*
X8592500Y-4784929D01*
X8621071Y-4770643D01*
X8721071Y-4699214D02*
X8835357Y-4699214D01*
X8763929Y-4599214D02*
X8763929Y-4856357D01*
X8778214Y-4884929D01*
X8806786Y-4899214D01*
X8835357Y-4899214D01*
X9049643Y-4884929D02*
X9021072Y-4899214D01*
X8963929Y-4899214D01*
X8935357Y-4884929D01*
X8921072Y-4856357D01*
X8921072Y-4742072D01*
X8935357Y-4713500D01*
X8963929Y-4699214D01*
X9021072Y-4699214D01*
X9049643Y-4713500D01*
X9063929Y-4742072D01*
X9063929Y-4770643D01*
X8921072Y-4799214D01*
X9321072Y-4899214D02*
X9321072Y-4599214D01*
X9321072Y-4884929D02*
X9292500Y-4899214D01*
X9235357Y-4899214D01*
X9206786Y-4884929D01*
X9192500Y-4870643D01*
X9178214Y-4842072D01*
X9178214Y-4756357D01*
X9192500Y-4727786D01*
X9206786Y-4713500D01*
X9235357Y-4699214D01*
X9292500Y-4699214D01*
X9321072Y-4713500D01*
X9435357Y-5013500D02*
X9449643Y-4999214D01*
X9478214Y-4956357D01*
X9492500Y-4927786D01*
X9506786Y-4884929D01*
X9521072Y-4813500D01*
X9521072Y-4756357D01*
X9506786Y-4684929D01*
X9492500Y-4642072D01*
X9478214Y-4613500D01*
X9449643Y-4570643D01*
X9435357Y-4556357D01*
M02*
