M48
;DRILL file {KiCad 4.0.1-stable} date 10/12/16 20:15:14
;FORMAT={3:3/ absolute / metric / suppress leading zeros}
FMAT,2
METRIC,TZ
T1C0.400
T2C0.700
T3C0.762
T4C0.800
T5C1.000
T6C1.001
%
G90
G05
M71
T1
X2500Y-25000
X3000Y-9250
X6750Y-24500
X7250Y-9250
X8500Y-1500
X10500Y-13750
X10500Y-30500
X10750Y-23500
X11250Y-20500
X12500Y-1500
X13000Y-31250
X13250Y-13250
X13500Y-6750
X14250Y-14250
X14600Y-18100
X14750Y-17000
X16000Y-6750
X16750Y-1500
X17000Y-15500
X17500Y-30750
X18000Y-6500
X19250Y-16000
X19900Y-26400
X20000Y-2250
X20000Y-5500
X20000Y-22000
X20500Y-18300
X21000Y-13250
X22000Y-10000
X22000Y-30750
X22250Y-23250
X23250Y-22000
X24200Y-11600
X24250Y-10000
X24250Y-26500
X25356Y-16356
X25400Y-18800
X26000Y-27000
X26300Y-10100
X26750Y-24000
X27000Y-3000
X27000Y-5250
X27500Y-16300
X27931Y-18931
X28600Y-26700
X28750Y-22500
X30300Y-25900
X31700Y-17400
X31750Y-12000
X32250Y-7500
X32250Y-10750
X33400Y-13600
X34000Y-22500
X34800Y-26300
X37000Y-21700
X37700Y-6500
X40600Y-3300
X40600Y-19900
X41000Y-23600
X41100Y-7500
X43200Y-15700
T2
X30500Y-3000
X32500Y-3000
X34500Y-3000
X36500Y-3000
X38500Y-3000
T3
X13500Y-23000
X13500Y-28080
T4
X25000Y-31000
X29000Y-31000
X33000Y-31000
X37000Y-31000
T5
X38940Y-10480
X38940Y-13020
X45000Y-18460
X45000Y-21000
X45000Y-23540
X46560Y-10480
X46560Y-13020
T6
X10760Y-4000
X10760Y-10000
X13300Y-4000
X13300Y-10000
T0
M30
