%FSLAX45Y45*%
G04 Gerber Fmt 4.5, Leading zero omitted, Abs format (unit mm)*
G04 Created by KiCad (PCBNEW 4.0.1-stable) date 10/12/16 20:15:14*
%MOMM*%
G01*
G04 APERTURE LIST*
%ADD10C,0.127000*%
%ADD11C,0.150000*%
%ADD12C,0.200000*%
%ADD13C,0.300000*%
G04 APERTURE END LIST*
D10*
D11*
X0Y-3400000D02*
X0Y0D01*
X4900000Y-3400000D02*
X0Y-3400000D01*
X4900000Y0D02*
X4900000Y-3400000D01*
X0Y0D02*
X4900000Y0D01*
D12*
X230000Y-2480000D02*
X270000Y-2520000D01*
X270000Y-2480000D02*
X230000Y-2520000D01*
X280000Y-905000D02*
X320000Y-945000D01*
X320000Y-905000D02*
X280000Y-945000D01*
X655000Y-2430000D02*
X695000Y-2470000D01*
X695000Y-2430000D02*
X655000Y-2470000D01*
X705000Y-905000D02*
X745000Y-945000D01*
X745000Y-905000D02*
X705000Y-945000D01*
X830000Y-130000D02*
X870000Y-170000D01*
X870000Y-130000D02*
X830000Y-170000D01*
X1030000Y-1355000D02*
X1070000Y-1395000D01*
X1070000Y-1355000D02*
X1030000Y-1395000D01*
X1030000Y-3030000D02*
X1070000Y-3070000D01*
X1070000Y-3030000D02*
X1030000Y-3070000D01*
X1055000Y-2330000D02*
X1095000Y-2370000D01*
X1095000Y-2330000D02*
X1055000Y-2370000D01*
X1105000Y-2030000D02*
X1145000Y-2070000D01*
X1145000Y-2030000D02*
X1105000Y-2070000D01*
X1230000Y-130000D02*
X1270000Y-170000D01*
X1270000Y-130000D02*
X1230000Y-170000D01*
X1280000Y-3105000D02*
X1320000Y-3145000D01*
X1320000Y-3105000D02*
X1280000Y-3145000D01*
X1305000Y-1305000D02*
X1345000Y-1345000D01*
X1345000Y-1305000D02*
X1305000Y-1345000D01*
X1330000Y-655000D02*
X1370000Y-695000D01*
X1370000Y-655000D02*
X1330000Y-695000D01*
X1405000Y-1405000D02*
X1445000Y-1445000D01*
X1445000Y-1405000D02*
X1405000Y-1445000D01*
X1440000Y-1790000D02*
X1480000Y-1830000D01*
X1480000Y-1790000D02*
X1440000Y-1830000D01*
X1455000Y-1680000D02*
X1495000Y-1720000D01*
X1495000Y-1680000D02*
X1455000Y-1720000D01*
X1580000Y-655000D02*
X1620000Y-695000D01*
X1620000Y-655000D02*
X1580000Y-695000D01*
X1655000Y-130000D02*
X1695000Y-170000D01*
X1695000Y-130000D02*
X1655000Y-170000D01*
X1680000Y-1530000D02*
X1720000Y-1570000D01*
X1720000Y-1530000D02*
X1680000Y-1570000D01*
X1730000Y-3055000D02*
X1770000Y-3095000D01*
X1770000Y-3055000D02*
X1730000Y-3095000D01*
X1780000Y-630000D02*
X1820000Y-670000D01*
X1820000Y-630000D02*
X1780000Y-670000D01*
X1905000Y-1580000D02*
X1945000Y-1620000D01*
X1945000Y-1580000D02*
X1905000Y-1620000D01*
X1970000Y-2620000D02*
X2010000Y-2660000D01*
X2010000Y-2620000D02*
X1970000Y-2660000D01*
X1980000Y-205000D02*
X2020000Y-245000D01*
X2020000Y-205000D02*
X1980000Y-245000D01*
X1980000Y-530000D02*
X2020000Y-570000D01*
X2020000Y-530000D02*
X1980000Y-570000D01*
X1980000Y-2180000D02*
X2020000Y-2220000D01*
X2020000Y-2180000D02*
X1980000Y-2220000D01*
X2030000Y-1810000D02*
X2070000Y-1850000D01*
X2070000Y-1810000D02*
X2030000Y-1850000D01*
X2080000Y-1305000D02*
X2120000Y-1345000D01*
X2120000Y-1305000D02*
X2080000Y-1345000D01*
X2180000Y-980000D02*
X2220000Y-1020000D01*
X2220000Y-980000D02*
X2180000Y-1020000D01*
X2180000Y-3055000D02*
X2220000Y-3095000D01*
X2220000Y-3055000D02*
X2180000Y-3095000D01*
X2205000Y-2305000D02*
X2245000Y-2345000D01*
X2245000Y-2305000D02*
X2205000Y-2345000D01*
X2305000Y-2180000D02*
X2345000Y-2220000D01*
X2345000Y-2180000D02*
X2305000Y-2220000D01*
X2400000Y-1140000D02*
X2440000Y-1180000D01*
X2440000Y-1140000D02*
X2400000Y-1180000D01*
X2405000Y-980000D02*
X2445000Y-1020000D01*
X2445000Y-980000D02*
X2405000Y-1020000D01*
X2405000Y-2630000D02*
X2445000Y-2670000D01*
X2445000Y-2630000D02*
X2405000Y-2670000D01*
X2515625Y-1615625D02*
X2555625Y-1655625D01*
X2555625Y-1615625D02*
X2515625Y-1655625D01*
X2520000Y-1860000D02*
X2560000Y-1900000D01*
X2560000Y-1860000D02*
X2520000Y-1900000D01*
X2580000Y-2680000D02*
X2620000Y-2720000D01*
X2620000Y-2680000D02*
X2580000Y-2720000D01*
X2610000Y-990000D02*
X2650000Y-1030000D01*
X2650000Y-990000D02*
X2610000Y-1030000D01*
X2655000Y-2380000D02*
X2695000Y-2420000D01*
X2695000Y-2380000D02*
X2655000Y-2420000D01*
X2680000Y-280000D02*
X2720000Y-320000D01*
X2720000Y-280000D02*
X2680000Y-320000D01*
X2680000Y-505000D02*
X2720000Y-545000D01*
X2720000Y-505000D02*
X2680000Y-545000D01*
X2730000Y-1610000D02*
X2770000Y-1650000D01*
X2770000Y-1610000D02*
X2730000Y-1650000D01*
X2773125Y-1873125D02*
X2813125Y-1913125D01*
X2813125Y-1873125D02*
X2773125Y-1913125D01*
X2840000Y-2650000D02*
X2880000Y-2690000D01*
X2880000Y-2650000D02*
X2840000Y-2690000D01*
X2855000Y-2230000D02*
X2895000Y-2270000D01*
X2895000Y-2230000D02*
X2855000Y-2270000D01*
X3010000Y-2570000D02*
X3050000Y-2610000D01*
X3050000Y-2570000D02*
X3010000Y-2610000D01*
X3150000Y-1720000D02*
X3190000Y-1760000D01*
X3190000Y-1720000D02*
X3150000Y-1760000D01*
X3155000Y-1180000D02*
X3195000Y-1220000D01*
X3195000Y-1180000D02*
X3155000Y-1220000D01*
X3205000Y-730000D02*
X3245000Y-770000D01*
X3245000Y-730000D02*
X3205000Y-770000D01*
X3205000Y-1055000D02*
X3245000Y-1095000D01*
X3245000Y-1055000D02*
X3205000Y-1095000D01*
X3320000Y-1340000D02*
X3360000Y-1380000D01*
X3360000Y-1340000D02*
X3320000Y-1380000D01*
X3380000Y-2230000D02*
X3420000Y-2270000D01*
X3420000Y-2230000D02*
X3380000Y-2270000D01*
X3460000Y-2610000D02*
X3500000Y-2650000D01*
X3500000Y-2610000D02*
X3460000Y-2650000D01*
X3680000Y-2150000D02*
X3720000Y-2190000D01*
X3720000Y-2150000D02*
X3680000Y-2190000D01*
X3750000Y-630000D02*
X3790000Y-670000D01*
X3790000Y-630000D02*
X3750000Y-670000D01*
X4040000Y-310000D02*
X4080000Y-350000D01*
X4080000Y-310000D02*
X4040000Y-350000D01*
X4040000Y-1970000D02*
X4080000Y-2010000D01*
X4080000Y-1970000D02*
X4040000Y-2010000D01*
X4080000Y-2340000D02*
X4120000Y-2380000D01*
X4120000Y-2340000D02*
X4080000Y-2380000D01*
X4090000Y-730000D02*
X4130000Y-770000D01*
X4130000Y-730000D02*
X4090000Y-770000D01*
X4300000Y-1550000D02*
X4340000Y-1590000D01*
X4340000Y-1550000D02*
X4300000Y-1590000D01*
X3085000Y-300000D02*
G75*
G03X3085000Y-300000I-35000J0D01*
G01*
X3285000Y-300000D02*
G75*
G03X3285000Y-300000I-35000J0D01*
G01*
X3485000Y-300000D02*
G75*
G03X3485000Y-300000I-35000J0D01*
G01*
X3685000Y-300000D02*
G75*
G03X3685000Y-300000I-35000J0D01*
G01*
X3885000Y-300000D02*
G75*
G03X3885000Y-300000I-35000J0D01*
G01*
X1350000Y-2261900D02*
X1350000Y-2338100D01*
X1311900Y-2300000D02*
X1388100Y-2300000D01*
X1350000Y-2769900D02*
X1350000Y-2846100D01*
X1311900Y-2808000D02*
X1388100Y-2808000D01*
X2528288Y-3128288D02*
X2528288Y-3071712D01*
X2471712Y-3071712D01*
X2471712Y-3128288D01*
X2528288Y-3128288D01*
X2928288Y-3128288D02*
X2928288Y-3071712D01*
X2871712Y-3071712D01*
X2871712Y-3128288D01*
X2928288Y-3128288D01*
X3328288Y-3128288D02*
X3328288Y-3071712D01*
X3271712Y-3071712D01*
X3271712Y-3128288D01*
X3328288Y-3128288D01*
X3728288Y-3128288D02*
X3728288Y-3071712D01*
X3671712Y-3071712D01*
X3671712Y-3128288D01*
X3728288Y-3128288D01*
X3894000Y-1098000D02*
X3944000Y-1048000D01*
X3894000Y-998000D01*
X3844000Y-1048000D01*
X3894000Y-1098000D01*
X3894000Y-1352000D02*
X3944000Y-1302000D01*
X3894000Y-1252000D01*
X3844000Y-1302000D01*
X3894000Y-1352000D01*
X4500000Y-1896000D02*
X4550000Y-1846000D01*
X4500000Y-1796000D01*
X4450000Y-1846000D01*
X4500000Y-1896000D01*
X4500000Y-2150000D02*
X4550000Y-2100000D01*
X4500000Y-2050000D01*
X4450000Y-2100000D01*
X4500000Y-2150000D01*
X4500000Y-2404000D02*
X4550000Y-2354000D01*
X4500000Y-2304000D01*
X4450000Y-2354000D01*
X4500000Y-2404000D01*
X4656000Y-1098000D02*
X4706000Y-1048000D01*
X4656000Y-998000D01*
X4606000Y-1048000D01*
X4656000Y-1098000D01*
X4656000Y-1352000D02*
X4706000Y-1302000D01*
X4656000Y-1252000D01*
X4606000Y-1302000D01*
X4656000Y-1352000D01*
X1025962Y-349962D02*
X1126038Y-450038D01*
X1126038Y-349962D02*
X1025962Y-450038D01*
X1126038Y-400000D02*
G75*
G03X1126038Y-400000I-50038J0D01*
G01*
X1025962Y-949962D02*
X1126038Y-1050038D01*
X1126038Y-949962D02*
X1025962Y-1050038D01*
X1126038Y-1000000D02*
G75*
G03X1126038Y-1000000I-50038J0D01*
G01*
X1279962Y-349962D02*
X1380038Y-450038D01*
X1380038Y-349962D02*
X1279962Y-450038D01*
X1380038Y-400000D02*
G75*
G03X1380038Y-400000I-50038J0D01*
G01*
X1279962Y-949962D02*
X1380038Y-1050038D01*
X1380038Y-949962D02*
X1279962Y-1050038D01*
X1380038Y-1000000D02*
G75*
G03X1380038Y-1000000I-50038J0D01*
G01*
D13*
X263929Y-3873214D02*
X263929Y-3573214D01*
X335357Y-3573214D01*
X378214Y-3587500D01*
X406786Y-3616071D01*
X421071Y-3644643D01*
X435357Y-3701786D01*
X435357Y-3744643D01*
X421071Y-3801786D01*
X406786Y-3830357D01*
X378214Y-3858929D01*
X335357Y-3873214D01*
X263929Y-3873214D01*
X563929Y-3873214D02*
X563929Y-3673214D01*
X563929Y-3730357D02*
X578214Y-3701786D01*
X592500Y-3687500D01*
X621071Y-3673214D01*
X649643Y-3673214D01*
X749643Y-3873214D02*
X749643Y-3673214D01*
X749643Y-3573214D02*
X735357Y-3587500D01*
X749643Y-3601786D01*
X763928Y-3587500D01*
X749643Y-3573214D01*
X749643Y-3601786D01*
X935357Y-3873214D02*
X906786Y-3858929D01*
X892500Y-3830357D01*
X892500Y-3573214D01*
X1092500Y-3873214D02*
X1063929Y-3858929D01*
X1049643Y-3830357D01*
X1049643Y-3573214D01*
X1435357Y-3873214D02*
X1435357Y-3573214D01*
X1535357Y-3787500D01*
X1635357Y-3573214D01*
X1635357Y-3873214D01*
X1906786Y-3873214D02*
X1906786Y-3716071D01*
X1892500Y-3687500D01*
X1863928Y-3673214D01*
X1806786Y-3673214D01*
X1778214Y-3687500D01*
X1906786Y-3858929D02*
X1878214Y-3873214D01*
X1806786Y-3873214D01*
X1778214Y-3858929D01*
X1763928Y-3830357D01*
X1763928Y-3801786D01*
X1778214Y-3773214D01*
X1806786Y-3758929D01*
X1878214Y-3758929D01*
X1906786Y-3744643D01*
X2049643Y-3673214D02*
X2049643Y-3973214D01*
X2049643Y-3687500D02*
X2078214Y-3673214D01*
X2135357Y-3673214D01*
X2163929Y-3687500D01*
X2178214Y-3701786D01*
X2192500Y-3730357D01*
X2192500Y-3816071D01*
X2178214Y-3844643D01*
X2163929Y-3858929D01*
X2135357Y-3873214D01*
X2078214Y-3873214D01*
X2049643Y-3858929D01*
X2321071Y-3844643D02*
X2335357Y-3858929D01*
X2321071Y-3873214D01*
X2306786Y-3858929D01*
X2321071Y-3844643D01*
X2321071Y-3873214D01*
X2321071Y-3687500D02*
X2335357Y-3701786D01*
X2321071Y-3716071D01*
X2306786Y-3701786D01*
X2321071Y-3687500D01*
X2321071Y-3716071D01*
X-47500Y-4347500D02*
X-7500Y-4387500D01*
X-7500Y-4347500D02*
X-47500Y-4387500D01*
X321071Y-4203214D02*
X349643Y-4203214D01*
X378214Y-4217500D01*
X392500Y-4231786D01*
X406786Y-4260357D01*
X421071Y-4317500D01*
X421071Y-4388929D01*
X406786Y-4446072D01*
X392500Y-4474643D01*
X378214Y-4488929D01*
X349643Y-4503214D01*
X321071Y-4503214D01*
X292500Y-4488929D01*
X278214Y-4474643D01*
X263929Y-4446072D01*
X249643Y-4388929D01*
X249643Y-4317500D01*
X263929Y-4260357D01*
X278214Y-4231786D01*
X292500Y-4217500D01*
X321071Y-4203214D01*
X549643Y-4474643D02*
X563929Y-4488929D01*
X549643Y-4503214D01*
X535357Y-4488929D01*
X549643Y-4474643D01*
X549643Y-4503214D01*
X821071Y-4303214D02*
X821071Y-4503214D01*
X749643Y-4188929D02*
X678214Y-4403214D01*
X863928Y-4403214D01*
X1035357Y-4203214D02*
X1063929Y-4203214D01*
X1092500Y-4217500D01*
X1106786Y-4231786D01*
X1121071Y-4260357D01*
X1135357Y-4317500D01*
X1135357Y-4388929D01*
X1121071Y-4446072D01*
X1106786Y-4474643D01*
X1092500Y-4488929D01*
X1063929Y-4503214D01*
X1035357Y-4503214D01*
X1006786Y-4488929D01*
X992500Y-4474643D01*
X978214Y-4446072D01*
X963928Y-4388929D01*
X963928Y-4317500D01*
X978214Y-4260357D01*
X992500Y-4231786D01*
X1006786Y-4217500D01*
X1035357Y-4203214D01*
X1263929Y-4503214D02*
X1263929Y-4303214D01*
X1263929Y-4331786D02*
X1278214Y-4317500D01*
X1306786Y-4303214D01*
X1349643Y-4303214D01*
X1378214Y-4317500D01*
X1392500Y-4346072D01*
X1392500Y-4503214D01*
X1392500Y-4346072D02*
X1406786Y-4317500D01*
X1435357Y-4303214D01*
X1478214Y-4303214D01*
X1506786Y-4317500D01*
X1521071Y-4346072D01*
X1521071Y-4503214D01*
X1663928Y-4503214D02*
X1663928Y-4303214D01*
X1663928Y-4331786D02*
X1678214Y-4317500D01*
X1706786Y-4303214D01*
X1749643Y-4303214D01*
X1778214Y-4317500D01*
X1792500Y-4346072D01*
X1792500Y-4503214D01*
X1792500Y-4346072D02*
X1806786Y-4317500D01*
X1835357Y-4303214D01*
X1878214Y-4303214D01*
X1906786Y-4317500D01*
X1921071Y-4346072D01*
X1921071Y-4503214D01*
X2506786Y-4188929D02*
X2249643Y-4574643D01*
X2892500Y-4203214D02*
X2921071Y-4203214D01*
X2949643Y-4217500D01*
X2963928Y-4231786D01*
X2978214Y-4260357D01*
X2992500Y-4317500D01*
X2992500Y-4388929D01*
X2978214Y-4446072D01*
X2963928Y-4474643D01*
X2949643Y-4488929D01*
X2921071Y-4503214D01*
X2892500Y-4503214D01*
X2863928Y-4488929D01*
X2849643Y-4474643D01*
X2835357Y-4446072D01*
X2821071Y-4388929D01*
X2821071Y-4317500D01*
X2835357Y-4260357D01*
X2849643Y-4231786D01*
X2863928Y-4217500D01*
X2892500Y-4203214D01*
X3121071Y-4474643D02*
X3135357Y-4488929D01*
X3121071Y-4503214D01*
X3106786Y-4488929D01*
X3121071Y-4474643D01*
X3121071Y-4503214D01*
X3321071Y-4203214D02*
X3349643Y-4203214D01*
X3378214Y-4217500D01*
X3392500Y-4231786D01*
X3406785Y-4260357D01*
X3421071Y-4317500D01*
X3421071Y-4388929D01*
X3406785Y-4446072D01*
X3392500Y-4474643D01*
X3378214Y-4488929D01*
X3349643Y-4503214D01*
X3321071Y-4503214D01*
X3292500Y-4488929D01*
X3278214Y-4474643D01*
X3263928Y-4446072D01*
X3249643Y-4388929D01*
X3249643Y-4317500D01*
X3263928Y-4260357D01*
X3278214Y-4231786D01*
X3292500Y-4217500D01*
X3321071Y-4203214D01*
X3706785Y-4503214D02*
X3535357Y-4503214D01*
X3621071Y-4503214D02*
X3621071Y-4203214D01*
X3592500Y-4246072D01*
X3563928Y-4274643D01*
X3535357Y-4288929D01*
X3963928Y-4203214D02*
X3906785Y-4203214D01*
X3878214Y-4217500D01*
X3863928Y-4231786D01*
X3835357Y-4274643D01*
X3821071Y-4331786D01*
X3821071Y-4446072D01*
X3835357Y-4474643D01*
X3849643Y-4488929D01*
X3878214Y-4503214D01*
X3935357Y-4503214D01*
X3963928Y-4488929D01*
X3978214Y-4474643D01*
X3992500Y-4446072D01*
X3992500Y-4374643D01*
X3978214Y-4346072D01*
X3963928Y-4331786D01*
X3935357Y-4317500D01*
X3878214Y-4317500D01*
X3849643Y-4331786D01*
X3835357Y-4346072D01*
X3821071Y-4374643D01*
X4106786Y-4203214D02*
X4106786Y-4260357D01*
X4221071Y-4203214D02*
X4221071Y-4260357D01*
X4663928Y-4617500D02*
X4649643Y-4603214D01*
X4621071Y-4560357D01*
X4606786Y-4531786D01*
X4592500Y-4488929D01*
X4578214Y-4417500D01*
X4578214Y-4360357D01*
X4592500Y-4288929D01*
X4606786Y-4246072D01*
X4621071Y-4217500D01*
X4649643Y-4174643D01*
X4663928Y-4160357D01*
X4906786Y-4203214D02*
X4849643Y-4203214D01*
X4821071Y-4217500D01*
X4806786Y-4231786D01*
X4778214Y-4274643D01*
X4763928Y-4331786D01*
X4763928Y-4446072D01*
X4778214Y-4474643D01*
X4792500Y-4488929D01*
X4821071Y-4503214D01*
X4878214Y-4503214D01*
X4906786Y-4488929D01*
X4921071Y-4474643D01*
X4935357Y-4446072D01*
X4935357Y-4374643D01*
X4921071Y-4346072D01*
X4906786Y-4331786D01*
X4878214Y-4317500D01*
X4821071Y-4317500D01*
X4792500Y-4331786D01*
X4778214Y-4346072D01*
X4763928Y-4374643D01*
X5221071Y-4503214D02*
X5049643Y-4503214D01*
X5135357Y-4503214D02*
X5135357Y-4203214D01*
X5106786Y-4246072D01*
X5078214Y-4274643D01*
X5049643Y-4288929D01*
X5578214Y-4503214D02*
X5578214Y-4203214D01*
X5706785Y-4503214D02*
X5706785Y-4346072D01*
X5692500Y-4317500D01*
X5663928Y-4303214D01*
X5621071Y-4303214D01*
X5592500Y-4317500D01*
X5578214Y-4331786D01*
X5892500Y-4503214D02*
X5863928Y-4488929D01*
X5849643Y-4474643D01*
X5835357Y-4446072D01*
X5835357Y-4360357D01*
X5849643Y-4331786D01*
X5863928Y-4317500D01*
X5892500Y-4303214D01*
X5935357Y-4303214D01*
X5963928Y-4317500D01*
X5978214Y-4331786D01*
X5992500Y-4360357D01*
X5992500Y-4446072D01*
X5978214Y-4474643D01*
X5963928Y-4488929D01*
X5935357Y-4503214D01*
X5892500Y-4503214D01*
X6163928Y-4503214D02*
X6135357Y-4488929D01*
X6121071Y-4460357D01*
X6121071Y-4203214D01*
X6392500Y-4488929D02*
X6363928Y-4503214D01*
X6306786Y-4503214D01*
X6278214Y-4488929D01*
X6263928Y-4460357D01*
X6263928Y-4346072D01*
X6278214Y-4317500D01*
X6306786Y-4303214D01*
X6363928Y-4303214D01*
X6392500Y-4317500D01*
X6406786Y-4346072D01*
X6406786Y-4374643D01*
X6263928Y-4403214D01*
X6521071Y-4488929D02*
X6549643Y-4503214D01*
X6606786Y-4503214D01*
X6635357Y-4488929D01*
X6649643Y-4460357D01*
X6649643Y-4446072D01*
X6635357Y-4417500D01*
X6606786Y-4403214D01*
X6563928Y-4403214D01*
X6535357Y-4388929D01*
X6521071Y-4360357D01*
X6521071Y-4346072D01*
X6535357Y-4317500D01*
X6563928Y-4303214D01*
X6606786Y-4303214D01*
X6635357Y-4317500D01*
X6749643Y-4617500D02*
X6763928Y-4603214D01*
X6792500Y-4560357D01*
X6806786Y-4531786D01*
X6821071Y-4488929D01*
X6835357Y-4417500D01*
X6835357Y-4360357D01*
X6821071Y-4288929D01*
X6806786Y-4246072D01*
X6792500Y-4217500D01*
X6763928Y-4174643D01*
X6749643Y-4160357D01*
X-7500Y-4763500D02*
G75*
G03X-7500Y-4763500I-35000J0D01*
G01*
X321071Y-4599214D02*
X349643Y-4599214D01*
X378214Y-4613500D01*
X392500Y-4627786D01*
X406786Y-4656357D01*
X421071Y-4713500D01*
X421071Y-4784929D01*
X406786Y-4842072D01*
X392500Y-4870643D01*
X378214Y-4884929D01*
X349643Y-4899214D01*
X321071Y-4899214D01*
X292500Y-4884929D01*
X278214Y-4870643D01*
X263929Y-4842072D01*
X249643Y-4784929D01*
X249643Y-4713500D01*
X263929Y-4656357D01*
X278214Y-4627786D01*
X292500Y-4613500D01*
X321071Y-4599214D01*
X549643Y-4870643D02*
X563929Y-4884929D01*
X549643Y-4899214D01*
X535357Y-4884929D01*
X549643Y-4870643D01*
X549643Y-4899214D01*
X663928Y-4599214D02*
X863928Y-4599214D01*
X735357Y-4899214D01*
X1035357Y-4599214D02*
X1063929Y-4599214D01*
X1092500Y-4613500D01*
X1106786Y-4627786D01*
X1121071Y-4656357D01*
X1135357Y-4713500D01*
X1135357Y-4784929D01*
X1121071Y-4842072D01*
X1106786Y-4870643D01*
X1092500Y-4884929D01*
X1063929Y-4899214D01*
X1035357Y-4899214D01*
X1006786Y-4884929D01*
X992500Y-4870643D01*
X978214Y-4842072D01*
X963928Y-4784929D01*
X963928Y-4713500D01*
X978214Y-4656357D01*
X992500Y-4627786D01*
X1006786Y-4613500D01*
X1035357Y-4599214D01*
X1263929Y-4899214D02*
X1263929Y-4699214D01*
X1263929Y-4727786D02*
X1278214Y-4713500D01*
X1306786Y-4699214D01*
X1349643Y-4699214D01*
X1378214Y-4713500D01*
X1392500Y-4742072D01*
X1392500Y-4899214D01*
X1392500Y-4742072D02*
X1406786Y-4713500D01*
X1435357Y-4699214D01*
X1478214Y-4699214D01*
X1506786Y-4713500D01*
X1521071Y-4742072D01*
X1521071Y-4899214D01*
X1663928Y-4899214D02*
X1663928Y-4699214D01*
X1663928Y-4727786D02*
X1678214Y-4713500D01*
X1706786Y-4699214D01*
X1749643Y-4699214D01*
X1778214Y-4713500D01*
X1792500Y-4742072D01*
X1792500Y-4899214D01*
X1792500Y-4742072D02*
X1806786Y-4713500D01*
X1835357Y-4699214D01*
X1878214Y-4699214D01*
X1906786Y-4713500D01*
X1921071Y-4742072D01*
X1921071Y-4899214D01*
X2506786Y-4584929D02*
X2249643Y-4970643D01*
X2892500Y-4599214D02*
X2921071Y-4599214D01*
X2949643Y-4613500D01*
X2963928Y-4627786D01*
X2978214Y-4656357D01*
X2992500Y-4713500D01*
X2992500Y-4784929D01*
X2978214Y-4842072D01*
X2963928Y-4870643D01*
X2949643Y-4884929D01*
X2921071Y-4899214D01*
X2892500Y-4899214D01*
X2863928Y-4884929D01*
X2849643Y-4870643D01*
X2835357Y-4842072D01*
X2821071Y-4784929D01*
X2821071Y-4713500D01*
X2835357Y-4656357D01*
X2849643Y-4627786D01*
X2863928Y-4613500D01*
X2892500Y-4599214D01*
X3121071Y-4870643D02*
X3135357Y-4884929D01*
X3121071Y-4899214D01*
X3106786Y-4884929D01*
X3121071Y-4870643D01*
X3121071Y-4899214D01*
X3321071Y-4599214D02*
X3349643Y-4599214D01*
X3378214Y-4613500D01*
X3392500Y-4627786D01*
X3406785Y-4656357D01*
X3421071Y-4713500D01*
X3421071Y-4784929D01*
X3406785Y-4842072D01*
X3392500Y-4870643D01*
X3378214Y-4884929D01*
X3349643Y-4899214D01*
X3321071Y-4899214D01*
X3292500Y-4884929D01*
X3278214Y-4870643D01*
X3263928Y-4842072D01*
X3249643Y-4784929D01*
X3249643Y-4713500D01*
X3263928Y-4656357D01*
X3278214Y-4627786D01*
X3292500Y-4613500D01*
X3321071Y-4599214D01*
X3535357Y-4627786D02*
X3549643Y-4613500D01*
X3578214Y-4599214D01*
X3649643Y-4599214D01*
X3678214Y-4613500D01*
X3692500Y-4627786D01*
X3706785Y-4656357D01*
X3706785Y-4684929D01*
X3692500Y-4727786D01*
X3521071Y-4899214D01*
X3706785Y-4899214D01*
X3878214Y-4727786D02*
X3849643Y-4713500D01*
X3835357Y-4699214D01*
X3821071Y-4670643D01*
X3821071Y-4656357D01*
X3835357Y-4627786D01*
X3849643Y-4613500D01*
X3878214Y-4599214D01*
X3935357Y-4599214D01*
X3963928Y-4613500D01*
X3978214Y-4627786D01*
X3992500Y-4656357D01*
X3992500Y-4670643D01*
X3978214Y-4699214D01*
X3963928Y-4713500D01*
X3935357Y-4727786D01*
X3878214Y-4727786D01*
X3849643Y-4742072D01*
X3835357Y-4756357D01*
X3821071Y-4784929D01*
X3821071Y-4842072D01*
X3835357Y-4870643D01*
X3849643Y-4884929D01*
X3878214Y-4899214D01*
X3935357Y-4899214D01*
X3963928Y-4884929D01*
X3978214Y-4870643D01*
X3992500Y-4842072D01*
X3992500Y-4784929D01*
X3978214Y-4756357D01*
X3963928Y-4742072D01*
X3935357Y-4727786D01*
X4106786Y-4599214D02*
X4106786Y-4656357D01*
X4221071Y-4599214D02*
X4221071Y-4656357D01*
X4663928Y-5013500D02*
X4649643Y-4999214D01*
X4621071Y-4956357D01*
X4606786Y-4927786D01*
X4592500Y-4884929D01*
X4578214Y-4813500D01*
X4578214Y-4756357D01*
X4592500Y-4684929D01*
X4606786Y-4642072D01*
X4621071Y-4613500D01*
X4649643Y-4570643D01*
X4663928Y-4556357D01*
X4921071Y-4599214D02*
X4778214Y-4599214D01*
X4763928Y-4742072D01*
X4778214Y-4727786D01*
X4806786Y-4713500D01*
X4878214Y-4713500D01*
X4906786Y-4727786D01*
X4921071Y-4742072D01*
X4935357Y-4770643D01*
X4935357Y-4842072D01*
X4921071Y-4870643D01*
X4906786Y-4884929D01*
X4878214Y-4899214D01*
X4806786Y-4899214D01*
X4778214Y-4884929D01*
X4763928Y-4870643D01*
X5292500Y-4899214D02*
X5292500Y-4599214D01*
X5421071Y-4899214D02*
X5421071Y-4742072D01*
X5406786Y-4713500D01*
X5378214Y-4699214D01*
X5335357Y-4699214D01*
X5306786Y-4713500D01*
X5292500Y-4727786D01*
X5606785Y-4899214D02*
X5578214Y-4884929D01*
X5563928Y-4870643D01*
X5549643Y-4842072D01*
X5549643Y-4756357D01*
X5563928Y-4727786D01*
X5578214Y-4713500D01*
X5606785Y-4699214D01*
X5649643Y-4699214D01*
X5678214Y-4713500D01*
X5692500Y-4727786D01*
X5706785Y-4756357D01*
X5706785Y-4842072D01*
X5692500Y-4870643D01*
X5678214Y-4884929D01*
X5649643Y-4899214D01*
X5606785Y-4899214D01*
X5878214Y-4899214D02*
X5849643Y-4884929D01*
X5835357Y-4856357D01*
X5835357Y-4599214D01*
X6106786Y-4884929D02*
X6078214Y-4899214D01*
X6021071Y-4899214D01*
X5992500Y-4884929D01*
X5978214Y-4856357D01*
X5978214Y-4742072D01*
X5992500Y-4713500D01*
X6021071Y-4699214D01*
X6078214Y-4699214D01*
X6106786Y-4713500D01*
X6121071Y-4742072D01*
X6121071Y-4770643D01*
X5978214Y-4799214D01*
X6235357Y-4884929D02*
X6263928Y-4899214D01*
X6321071Y-4899214D01*
X6349643Y-4884929D01*
X6363928Y-4856357D01*
X6363928Y-4842072D01*
X6349643Y-4813500D01*
X6321071Y-4799214D01*
X6278214Y-4799214D01*
X6249643Y-4784929D01*
X6235357Y-4756357D01*
X6235357Y-4742072D01*
X6249643Y-4713500D01*
X6278214Y-4699214D01*
X6321071Y-4699214D01*
X6349643Y-4713500D01*
X6463928Y-5013500D02*
X6478214Y-4999214D01*
X6506786Y-4956357D01*
X6521071Y-4927786D01*
X6535357Y-4884929D01*
X6549643Y-4813500D01*
X6549643Y-4756357D01*
X6535357Y-4684929D01*
X6521071Y-4642072D01*
X6506786Y-4613500D01*
X6478214Y-4570643D01*
X6463928Y-4556357D01*
X-45600Y-5121400D02*
X-45600Y-5197600D01*
X-83700Y-5159500D02*
X-7500Y-5159500D01*
X321071Y-4995214D02*
X349643Y-4995214D01*
X378214Y-5009500D01*
X392500Y-5023786D01*
X406786Y-5052357D01*
X421071Y-5109500D01*
X421071Y-5180929D01*
X406786Y-5238072D01*
X392500Y-5266643D01*
X378214Y-5280929D01*
X349643Y-5295214D01*
X321071Y-5295214D01*
X292500Y-5280929D01*
X278214Y-5266643D01*
X263929Y-5238072D01*
X249643Y-5180929D01*
X249643Y-5109500D01*
X263929Y-5052357D01*
X278214Y-5023786D01*
X292500Y-5009500D01*
X321071Y-4995214D01*
X549643Y-5266643D02*
X563929Y-5280929D01*
X549643Y-5295214D01*
X535357Y-5280929D01*
X549643Y-5266643D01*
X549643Y-5295214D01*
X663928Y-4995214D02*
X863928Y-4995214D01*
X735357Y-5295214D01*
X1106786Y-4995214D02*
X1049643Y-4995214D01*
X1021071Y-5009500D01*
X1006786Y-5023786D01*
X978214Y-5066643D01*
X963928Y-5123786D01*
X963928Y-5238072D01*
X978214Y-5266643D01*
X992500Y-5280929D01*
X1021071Y-5295214D01*
X1078214Y-5295214D01*
X1106786Y-5280929D01*
X1121071Y-5266643D01*
X1135357Y-5238072D01*
X1135357Y-5166643D01*
X1121071Y-5138072D01*
X1106786Y-5123786D01*
X1078214Y-5109500D01*
X1021071Y-5109500D01*
X992500Y-5123786D01*
X978214Y-5138072D01*
X963928Y-5166643D01*
X1263929Y-5295214D02*
X1263929Y-5095214D01*
X1263929Y-5123786D02*
X1278214Y-5109500D01*
X1306786Y-5095214D01*
X1349643Y-5095214D01*
X1378214Y-5109500D01*
X1392500Y-5138072D01*
X1392500Y-5295214D01*
X1392500Y-5138072D02*
X1406786Y-5109500D01*
X1435357Y-5095214D01*
X1478214Y-5095214D01*
X1506786Y-5109500D01*
X1521071Y-5138072D01*
X1521071Y-5295214D01*
X1663928Y-5295214D02*
X1663928Y-5095214D01*
X1663928Y-5123786D02*
X1678214Y-5109500D01*
X1706786Y-5095214D01*
X1749643Y-5095214D01*
X1778214Y-5109500D01*
X1792500Y-5138072D01*
X1792500Y-5295214D01*
X1792500Y-5138072D02*
X1806786Y-5109500D01*
X1835357Y-5095214D01*
X1878214Y-5095214D01*
X1906786Y-5109500D01*
X1921071Y-5138072D01*
X1921071Y-5295214D01*
X2506786Y-4980929D02*
X2249643Y-5366643D01*
X2892500Y-4995214D02*
X2921071Y-4995214D01*
X2949643Y-5009500D01*
X2963928Y-5023786D01*
X2978214Y-5052357D01*
X2992500Y-5109500D01*
X2992500Y-5180929D01*
X2978214Y-5238072D01*
X2963928Y-5266643D01*
X2949643Y-5280929D01*
X2921071Y-5295214D01*
X2892500Y-5295214D01*
X2863928Y-5280929D01*
X2849643Y-5266643D01*
X2835357Y-5238072D01*
X2821071Y-5180929D01*
X2821071Y-5109500D01*
X2835357Y-5052357D01*
X2849643Y-5023786D01*
X2863928Y-5009500D01*
X2892500Y-4995214D01*
X3121071Y-5266643D02*
X3135357Y-5280929D01*
X3121071Y-5295214D01*
X3106786Y-5280929D01*
X3121071Y-5266643D01*
X3121071Y-5295214D01*
X3321071Y-4995214D02*
X3349643Y-4995214D01*
X3378214Y-5009500D01*
X3392500Y-5023786D01*
X3406785Y-5052357D01*
X3421071Y-5109500D01*
X3421071Y-5180929D01*
X3406785Y-5238072D01*
X3392500Y-5266643D01*
X3378214Y-5280929D01*
X3349643Y-5295214D01*
X3321071Y-5295214D01*
X3292500Y-5280929D01*
X3278214Y-5266643D01*
X3263928Y-5238072D01*
X3249643Y-5180929D01*
X3249643Y-5109500D01*
X3263928Y-5052357D01*
X3278214Y-5023786D01*
X3292500Y-5009500D01*
X3321071Y-4995214D01*
X3521071Y-4995214D02*
X3706785Y-4995214D01*
X3606785Y-5109500D01*
X3649643Y-5109500D01*
X3678214Y-5123786D01*
X3692500Y-5138072D01*
X3706785Y-5166643D01*
X3706785Y-5238072D01*
X3692500Y-5266643D01*
X3678214Y-5280929D01*
X3649643Y-5295214D01*
X3563928Y-5295214D01*
X3535357Y-5280929D01*
X3521071Y-5266643D01*
X3892500Y-4995214D02*
X3921071Y-4995214D01*
X3949643Y-5009500D01*
X3963928Y-5023786D01*
X3978214Y-5052357D01*
X3992500Y-5109500D01*
X3992500Y-5180929D01*
X3978214Y-5238072D01*
X3963928Y-5266643D01*
X3949643Y-5280929D01*
X3921071Y-5295214D01*
X3892500Y-5295214D01*
X3863928Y-5280929D01*
X3849643Y-5266643D01*
X3835357Y-5238072D01*
X3821071Y-5180929D01*
X3821071Y-5109500D01*
X3835357Y-5052357D01*
X3849643Y-5023786D01*
X3863928Y-5009500D01*
X3892500Y-4995214D01*
X4106786Y-4995214D02*
X4106786Y-5052357D01*
X4221071Y-4995214D02*
X4221071Y-5052357D01*
X4663928Y-5409500D02*
X4649643Y-5395214D01*
X4621071Y-5352357D01*
X4606786Y-5323786D01*
X4592500Y-5280929D01*
X4578214Y-5209500D01*
X4578214Y-5152357D01*
X4592500Y-5080929D01*
X4606786Y-5038072D01*
X4621071Y-5009500D01*
X4649643Y-4966643D01*
X4663928Y-4952357D01*
X4763928Y-5023786D02*
X4778214Y-5009500D01*
X4806786Y-4995214D01*
X4878214Y-4995214D01*
X4906786Y-5009500D01*
X4921071Y-5023786D01*
X4935357Y-5052357D01*
X4935357Y-5080929D01*
X4921071Y-5123786D01*
X4749643Y-5295214D01*
X4935357Y-5295214D01*
X5292500Y-5295214D02*
X5292500Y-4995214D01*
X5421071Y-5295214D02*
X5421071Y-5138072D01*
X5406786Y-5109500D01*
X5378214Y-5095214D01*
X5335357Y-5095214D01*
X5306786Y-5109500D01*
X5292500Y-5123786D01*
X5606785Y-5295214D02*
X5578214Y-5280929D01*
X5563928Y-5266643D01*
X5549643Y-5238072D01*
X5549643Y-5152357D01*
X5563928Y-5123786D01*
X5578214Y-5109500D01*
X5606785Y-5095214D01*
X5649643Y-5095214D01*
X5678214Y-5109500D01*
X5692500Y-5123786D01*
X5706785Y-5152357D01*
X5706785Y-5238072D01*
X5692500Y-5266643D01*
X5678214Y-5280929D01*
X5649643Y-5295214D01*
X5606785Y-5295214D01*
X5878214Y-5295214D02*
X5849643Y-5280929D01*
X5835357Y-5252357D01*
X5835357Y-4995214D01*
X6106786Y-5280929D02*
X6078214Y-5295214D01*
X6021071Y-5295214D01*
X5992500Y-5280929D01*
X5978214Y-5252357D01*
X5978214Y-5138072D01*
X5992500Y-5109500D01*
X6021071Y-5095214D01*
X6078214Y-5095214D01*
X6106786Y-5109500D01*
X6121071Y-5138072D01*
X6121071Y-5166643D01*
X5978214Y-5195214D01*
X6235357Y-5280929D02*
X6263928Y-5295214D01*
X6321071Y-5295214D01*
X6349643Y-5280929D01*
X6363928Y-5252357D01*
X6363928Y-5238072D01*
X6349643Y-5209500D01*
X6321071Y-5195214D01*
X6278214Y-5195214D01*
X6249643Y-5180929D01*
X6235357Y-5152357D01*
X6235357Y-5138072D01*
X6249643Y-5109500D01*
X6278214Y-5095214D01*
X6321071Y-5095214D01*
X6349643Y-5109500D01*
X6463928Y-5409500D02*
X6478214Y-5395214D01*
X6506786Y-5352357D01*
X6521071Y-5323786D01*
X6535357Y-5280929D01*
X6549643Y-5209500D01*
X6549643Y-5152357D01*
X6535357Y-5080929D01*
X6521071Y-5038072D01*
X6506786Y-5009500D01*
X6478214Y-4966643D01*
X6463928Y-4952357D01*
X-19217Y-5583788D02*
X-19217Y-5527212D01*
X-75793Y-5527212D01*
X-75793Y-5583788D01*
X-19217Y-5583788D01*
X321071Y-5391214D02*
X349643Y-5391214D01*
X378214Y-5405500D01*
X392500Y-5419786D01*
X406786Y-5448357D01*
X421071Y-5505500D01*
X421071Y-5576929D01*
X406786Y-5634071D01*
X392500Y-5662643D01*
X378214Y-5676929D01*
X349643Y-5691214D01*
X321071Y-5691214D01*
X292500Y-5676929D01*
X278214Y-5662643D01*
X263929Y-5634071D01*
X249643Y-5576929D01*
X249643Y-5505500D01*
X263929Y-5448357D01*
X278214Y-5419786D01*
X292500Y-5405500D01*
X321071Y-5391214D01*
X549643Y-5662643D02*
X563929Y-5676929D01*
X549643Y-5691214D01*
X535357Y-5676929D01*
X549643Y-5662643D01*
X549643Y-5691214D01*
X735357Y-5519786D02*
X706786Y-5505500D01*
X692500Y-5491214D01*
X678214Y-5462643D01*
X678214Y-5448357D01*
X692500Y-5419786D01*
X706786Y-5405500D01*
X735357Y-5391214D01*
X792500Y-5391214D01*
X821071Y-5405500D01*
X835357Y-5419786D01*
X849643Y-5448357D01*
X849643Y-5462643D01*
X835357Y-5491214D01*
X821071Y-5505500D01*
X792500Y-5519786D01*
X735357Y-5519786D01*
X706786Y-5534072D01*
X692500Y-5548357D01*
X678214Y-5576929D01*
X678214Y-5634071D01*
X692500Y-5662643D01*
X706786Y-5676929D01*
X735357Y-5691214D01*
X792500Y-5691214D01*
X821071Y-5676929D01*
X835357Y-5662643D01*
X849643Y-5634071D01*
X849643Y-5576929D01*
X835357Y-5548357D01*
X821071Y-5534072D01*
X792500Y-5519786D01*
X1035357Y-5391214D02*
X1063929Y-5391214D01*
X1092500Y-5405500D01*
X1106786Y-5419786D01*
X1121071Y-5448357D01*
X1135357Y-5505500D01*
X1135357Y-5576929D01*
X1121071Y-5634071D01*
X1106786Y-5662643D01*
X1092500Y-5676929D01*
X1063929Y-5691214D01*
X1035357Y-5691214D01*
X1006786Y-5676929D01*
X992500Y-5662643D01*
X978214Y-5634071D01*
X963928Y-5576929D01*
X963928Y-5505500D01*
X978214Y-5448357D01*
X992500Y-5419786D01*
X1006786Y-5405500D01*
X1035357Y-5391214D01*
X1263929Y-5691214D02*
X1263929Y-5491214D01*
X1263929Y-5519786D02*
X1278214Y-5505500D01*
X1306786Y-5491214D01*
X1349643Y-5491214D01*
X1378214Y-5505500D01*
X1392500Y-5534072D01*
X1392500Y-5691214D01*
X1392500Y-5534072D02*
X1406786Y-5505500D01*
X1435357Y-5491214D01*
X1478214Y-5491214D01*
X1506786Y-5505500D01*
X1521071Y-5534072D01*
X1521071Y-5691214D01*
X1663928Y-5691214D02*
X1663928Y-5491214D01*
X1663928Y-5519786D02*
X1678214Y-5505500D01*
X1706786Y-5491214D01*
X1749643Y-5491214D01*
X1778214Y-5505500D01*
X1792500Y-5534072D01*
X1792500Y-5691214D01*
X1792500Y-5534072D02*
X1806786Y-5505500D01*
X1835357Y-5491214D01*
X1878214Y-5491214D01*
X1906786Y-5505500D01*
X1921071Y-5534072D01*
X1921071Y-5691214D01*
X2506786Y-5376929D02*
X2249643Y-5762643D01*
X2892500Y-5391214D02*
X2921071Y-5391214D01*
X2949643Y-5405500D01*
X2963928Y-5419786D01*
X2978214Y-5448357D01*
X2992500Y-5505500D01*
X2992500Y-5576929D01*
X2978214Y-5634071D01*
X2963928Y-5662643D01*
X2949643Y-5676929D01*
X2921071Y-5691214D01*
X2892500Y-5691214D01*
X2863928Y-5676929D01*
X2849643Y-5662643D01*
X2835357Y-5634071D01*
X2821071Y-5576929D01*
X2821071Y-5505500D01*
X2835357Y-5448357D01*
X2849643Y-5419786D01*
X2863928Y-5405500D01*
X2892500Y-5391214D01*
X3121071Y-5662643D02*
X3135357Y-5676929D01*
X3121071Y-5691214D01*
X3106786Y-5676929D01*
X3121071Y-5662643D01*
X3121071Y-5691214D01*
X3321071Y-5391214D02*
X3349643Y-5391214D01*
X3378214Y-5405500D01*
X3392500Y-5419786D01*
X3406785Y-5448357D01*
X3421071Y-5505500D01*
X3421071Y-5576929D01*
X3406785Y-5634071D01*
X3392500Y-5662643D01*
X3378214Y-5676929D01*
X3349643Y-5691214D01*
X3321071Y-5691214D01*
X3292500Y-5676929D01*
X3278214Y-5662643D01*
X3263928Y-5634071D01*
X3249643Y-5576929D01*
X3249643Y-5505500D01*
X3263928Y-5448357D01*
X3278214Y-5419786D01*
X3292500Y-5405500D01*
X3321071Y-5391214D01*
X3521071Y-5391214D02*
X3706785Y-5391214D01*
X3606785Y-5505500D01*
X3649643Y-5505500D01*
X3678214Y-5519786D01*
X3692500Y-5534072D01*
X3706785Y-5562643D01*
X3706785Y-5634071D01*
X3692500Y-5662643D01*
X3678214Y-5676929D01*
X3649643Y-5691214D01*
X3563928Y-5691214D01*
X3535357Y-5676929D01*
X3521071Y-5662643D01*
X3821071Y-5419786D02*
X3835357Y-5405500D01*
X3863928Y-5391214D01*
X3935357Y-5391214D01*
X3963928Y-5405500D01*
X3978214Y-5419786D01*
X3992500Y-5448357D01*
X3992500Y-5476929D01*
X3978214Y-5519786D01*
X3806785Y-5691214D01*
X3992500Y-5691214D01*
X4106786Y-5391214D02*
X4106786Y-5448357D01*
X4221071Y-5391214D02*
X4221071Y-5448357D01*
X4663928Y-5805500D02*
X4649643Y-5791214D01*
X4621071Y-5748357D01*
X4606786Y-5719786D01*
X4592500Y-5676929D01*
X4578214Y-5605500D01*
X4578214Y-5548357D01*
X4592500Y-5476929D01*
X4606786Y-5434072D01*
X4621071Y-5405500D01*
X4649643Y-5362643D01*
X4663928Y-5348357D01*
X4906786Y-5491214D02*
X4906786Y-5691214D01*
X4835357Y-5376929D02*
X4763928Y-5591214D01*
X4949643Y-5591214D01*
X5292500Y-5691214D02*
X5292500Y-5391214D01*
X5421071Y-5691214D02*
X5421071Y-5534072D01*
X5406786Y-5505500D01*
X5378214Y-5491214D01*
X5335357Y-5491214D01*
X5306786Y-5505500D01*
X5292500Y-5519786D01*
X5606785Y-5691214D02*
X5578214Y-5676929D01*
X5563928Y-5662643D01*
X5549643Y-5634071D01*
X5549643Y-5548357D01*
X5563928Y-5519786D01*
X5578214Y-5505500D01*
X5606785Y-5491214D01*
X5649643Y-5491214D01*
X5678214Y-5505500D01*
X5692500Y-5519786D01*
X5706785Y-5548357D01*
X5706785Y-5634071D01*
X5692500Y-5662643D01*
X5678214Y-5676929D01*
X5649643Y-5691214D01*
X5606785Y-5691214D01*
X5878214Y-5691214D02*
X5849643Y-5676929D01*
X5835357Y-5648357D01*
X5835357Y-5391214D01*
X6106786Y-5676929D02*
X6078214Y-5691214D01*
X6021071Y-5691214D01*
X5992500Y-5676929D01*
X5978214Y-5648357D01*
X5978214Y-5534072D01*
X5992500Y-5505500D01*
X6021071Y-5491214D01*
X6078214Y-5491214D01*
X6106786Y-5505500D01*
X6121071Y-5534072D01*
X6121071Y-5562643D01*
X5978214Y-5591214D01*
X6235357Y-5676929D02*
X6263928Y-5691214D01*
X6321071Y-5691214D01*
X6349643Y-5676929D01*
X6363928Y-5648357D01*
X6363928Y-5634071D01*
X6349643Y-5605500D01*
X6321071Y-5591214D01*
X6278214Y-5591214D01*
X6249643Y-5576929D01*
X6235357Y-5548357D01*
X6235357Y-5534072D01*
X6249643Y-5505500D01*
X6278214Y-5491214D01*
X6321071Y-5491214D01*
X6349643Y-5505500D01*
X6463928Y-5805500D02*
X6478214Y-5791214D01*
X6506786Y-5748357D01*
X6521071Y-5719786D01*
X6535357Y-5676929D01*
X6549643Y-5605500D01*
X6549643Y-5548357D01*
X6535357Y-5476929D01*
X6521071Y-5434072D01*
X6506786Y-5405500D01*
X6478214Y-5362643D01*
X6463928Y-5348357D01*
X-57500Y-6001500D02*
X-7500Y-5951500D01*
X-57500Y-5901500D01*
X-107500Y-5951500D01*
X-57500Y-6001500D01*
X421071Y-6087214D02*
X249643Y-6087214D01*
X335357Y-6087214D02*
X335357Y-5787214D01*
X306786Y-5830071D01*
X278214Y-5858643D01*
X249643Y-5872929D01*
X549643Y-6058643D02*
X563929Y-6072929D01*
X549643Y-6087214D01*
X535357Y-6072929D01*
X549643Y-6058643D01*
X549643Y-6087214D01*
X749643Y-5787214D02*
X778214Y-5787214D01*
X806786Y-5801500D01*
X821071Y-5815786D01*
X835357Y-5844357D01*
X849643Y-5901500D01*
X849643Y-5972929D01*
X835357Y-6030071D01*
X821071Y-6058643D01*
X806786Y-6072929D01*
X778214Y-6087214D01*
X749643Y-6087214D01*
X721071Y-6072929D01*
X706786Y-6058643D01*
X692500Y-6030071D01*
X678214Y-5972929D01*
X678214Y-5901500D01*
X692500Y-5844357D01*
X706786Y-5815786D01*
X721071Y-5801500D01*
X749643Y-5787214D01*
X1035357Y-5787214D02*
X1063929Y-5787214D01*
X1092500Y-5801500D01*
X1106786Y-5815786D01*
X1121071Y-5844357D01*
X1135357Y-5901500D01*
X1135357Y-5972929D01*
X1121071Y-6030071D01*
X1106786Y-6058643D01*
X1092500Y-6072929D01*
X1063929Y-6087214D01*
X1035357Y-6087214D01*
X1006786Y-6072929D01*
X992500Y-6058643D01*
X978214Y-6030071D01*
X963928Y-5972929D01*
X963928Y-5901500D01*
X978214Y-5844357D01*
X992500Y-5815786D01*
X1006786Y-5801500D01*
X1035357Y-5787214D01*
X1263929Y-6087214D02*
X1263929Y-5887214D01*
X1263929Y-5915786D02*
X1278214Y-5901500D01*
X1306786Y-5887214D01*
X1349643Y-5887214D01*
X1378214Y-5901500D01*
X1392500Y-5930071D01*
X1392500Y-6087214D01*
X1392500Y-5930071D02*
X1406786Y-5901500D01*
X1435357Y-5887214D01*
X1478214Y-5887214D01*
X1506786Y-5901500D01*
X1521071Y-5930071D01*
X1521071Y-6087214D01*
X1663928Y-6087214D02*
X1663928Y-5887214D01*
X1663928Y-5915786D02*
X1678214Y-5901500D01*
X1706786Y-5887214D01*
X1749643Y-5887214D01*
X1778214Y-5901500D01*
X1792500Y-5930071D01*
X1792500Y-6087214D01*
X1792500Y-5930071D02*
X1806786Y-5901500D01*
X1835357Y-5887214D01*
X1878214Y-5887214D01*
X1906786Y-5901500D01*
X1921071Y-5930071D01*
X1921071Y-6087214D01*
X2506786Y-5772929D02*
X2249643Y-6158643D01*
X2892500Y-5787214D02*
X2921071Y-5787214D01*
X2949643Y-5801500D01*
X2963928Y-5815786D01*
X2978214Y-5844357D01*
X2992500Y-5901500D01*
X2992500Y-5972929D01*
X2978214Y-6030071D01*
X2963928Y-6058643D01*
X2949643Y-6072929D01*
X2921071Y-6087214D01*
X2892500Y-6087214D01*
X2863928Y-6072929D01*
X2849643Y-6058643D01*
X2835357Y-6030071D01*
X2821071Y-5972929D01*
X2821071Y-5901500D01*
X2835357Y-5844357D01*
X2849643Y-5815786D01*
X2863928Y-5801500D01*
X2892500Y-5787214D01*
X3121071Y-6058643D02*
X3135357Y-6072929D01*
X3121071Y-6087214D01*
X3106786Y-6072929D01*
X3121071Y-6058643D01*
X3121071Y-6087214D01*
X3321071Y-5787214D02*
X3349643Y-5787214D01*
X3378214Y-5801500D01*
X3392500Y-5815786D01*
X3406785Y-5844357D01*
X3421071Y-5901500D01*
X3421071Y-5972929D01*
X3406785Y-6030071D01*
X3392500Y-6058643D01*
X3378214Y-6072929D01*
X3349643Y-6087214D01*
X3321071Y-6087214D01*
X3292500Y-6072929D01*
X3278214Y-6058643D01*
X3263928Y-6030071D01*
X3249643Y-5972929D01*
X3249643Y-5901500D01*
X3263928Y-5844357D01*
X3278214Y-5815786D01*
X3292500Y-5801500D01*
X3321071Y-5787214D01*
X3521071Y-5787214D02*
X3706785Y-5787214D01*
X3606785Y-5901500D01*
X3649643Y-5901500D01*
X3678214Y-5915786D01*
X3692500Y-5930071D01*
X3706785Y-5958643D01*
X3706785Y-6030071D01*
X3692500Y-6058643D01*
X3678214Y-6072929D01*
X3649643Y-6087214D01*
X3563928Y-6087214D01*
X3535357Y-6072929D01*
X3521071Y-6058643D01*
X3849643Y-6087214D02*
X3906785Y-6087214D01*
X3935357Y-6072929D01*
X3949643Y-6058643D01*
X3978214Y-6015786D01*
X3992500Y-5958643D01*
X3992500Y-5844357D01*
X3978214Y-5815786D01*
X3963928Y-5801500D01*
X3935357Y-5787214D01*
X3878214Y-5787214D01*
X3849643Y-5801500D01*
X3835357Y-5815786D01*
X3821071Y-5844357D01*
X3821071Y-5915786D01*
X3835357Y-5944357D01*
X3849643Y-5958643D01*
X3878214Y-5972929D01*
X3935357Y-5972929D01*
X3963928Y-5958643D01*
X3978214Y-5944357D01*
X3992500Y-5915786D01*
X4106786Y-5787214D02*
X4106786Y-5844357D01*
X4221071Y-5787214D02*
X4221071Y-5844357D01*
X4663928Y-6201500D02*
X4649643Y-6187214D01*
X4621071Y-6144357D01*
X4606786Y-6115786D01*
X4592500Y-6072929D01*
X4578214Y-6001500D01*
X4578214Y-5944357D01*
X4592500Y-5872929D01*
X4606786Y-5830071D01*
X4621071Y-5801500D01*
X4649643Y-5758643D01*
X4663928Y-5744357D01*
X4749643Y-5787214D02*
X4949643Y-5787214D01*
X4821071Y-6087214D01*
X5292500Y-6087214D02*
X5292500Y-5787214D01*
X5421071Y-6087214D02*
X5421071Y-5930071D01*
X5406786Y-5901500D01*
X5378214Y-5887214D01*
X5335357Y-5887214D01*
X5306786Y-5901500D01*
X5292500Y-5915786D01*
X5606785Y-6087214D02*
X5578214Y-6072929D01*
X5563928Y-6058643D01*
X5549643Y-6030071D01*
X5549643Y-5944357D01*
X5563928Y-5915786D01*
X5578214Y-5901500D01*
X5606785Y-5887214D01*
X5649643Y-5887214D01*
X5678214Y-5901500D01*
X5692500Y-5915786D01*
X5706785Y-5944357D01*
X5706785Y-6030071D01*
X5692500Y-6058643D01*
X5678214Y-6072929D01*
X5649643Y-6087214D01*
X5606785Y-6087214D01*
X5878214Y-6087214D02*
X5849643Y-6072929D01*
X5835357Y-6044357D01*
X5835357Y-5787214D01*
X6106786Y-6072929D02*
X6078214Y-6087214D01*
X6021071Y-6087214D01*
X5992500Y-6072929D01*
X5978214Y-6044357D01*
X5978214Y-5930071D01*
X5992500Y-5901500D01*
X6021071Y-5887214D01*
X6078214Y-5887214D01*
X6106786Y-5901500D01*
X6121071Y-5930071D01*
X6121071Y-5958643D01*
X5978214Y-5987214D01*
X6235357Y-6072929D02*
X6263928Y-6087214D01*
X6321071Y-6087214D01*
X6349643Y-6072929D01*
X6363928Y-6044357D01*
X6363928Y-6030071D01*
X6349643Y-6001500D01*
X6321071Y-5987214D01*
X6278214Y-5987214D01*
X6249643Y-5972929D01*
X6235357Y-5944357D01*
X6235357Y-5930071D01*
X6249643Y-5901500D01*
X6278214Y-5887214D01*
X6321071Y-5887214D01*
X6349643Y-5901500D01*
X6463928Y-6201500D02*
X6478214Y-6187214D01*
X6506786Y-6144357D01*
X6521071Y-6115786D01*
X6535357Y-6072929D01*
X6549643Y-6001500D01*
X6549643Y-5944357D01*
X6535357Y-5872929D01*
X6521071Y-5830071D01*
X6506786Y-5801500D01*
X6478214Y-5758643D01*
X6463928Y-5744357D01*
X-107576Y-6297462D02*
X-7500Y-6397538D01*
X-7500Y-6297462D02*
X-107576Y-6397538D01*
X-7500Y-6347500D02*
G75*
G03X-7500Y-6347500I-50038J0D01*
G01*
X421071Y-6483214D02*
X249643Y-6483214D01*
X335357Y-6483214D02*
X335357Y-6183214D01*
X306786Y-6226071D01*
X278214Y-6254643D01*
X249643Y-6268929D01*
X549643Y-6454643D02*
X563929Y-6468929D01*
X549643Y-6483214D01*
X535357Y-6468929D01*
X549643Y-6454643D01*
X549643Y-6483214D01*
X749643Y-6183214D02*
X778214Y-6183214D01*
X806786Y-6197500D01*
X821071Y-6211786D01*
X835357Y-6240357D01*
X849643Y-6297500D01*
X849643Y-6368929D01*
X835357Y-6426071D01*
X821071Y-6454643D01*
X806786Y-6468929D01*
X778214Y-6483214D01*
X749643Y-6483214D01*
X721071Y-6468929D01*
X706786Y-6454643D01*
X692500Y-6426071D01*
X678214Y-6368929D01*
X678214Y-6297500D01*
X692500Y-6240357D01*
X706786Y-6211786D01*
X721071Y-6197500D01*
X749643Y-6183214D01*
X1035357Y-6183214D02*
X1063929Y-6183214D01*
X1092500Y-6197500D01*
X1106786Y-6211786D01*
X1121071Y-6240357D01*
X1135357Y-6297500D01*
X1135357Y-6368929D01*
X1121071Y-6426071D01*
X1106786Y-6454643D01*
X1092500Y-6468929D01*
X1063929Y-6483214D01*
X1035357Y-6483214D01*
X1006786Y-6468929D01*
X992500Y-6454643D01*
X978214Y-6426071D01*
X963928Y-6368929D01*
X963928Y-6297500D01*
X978214Y-6240357D01*
X992500Y-6211786D01*
X1006786Y-6197500D01*
X1035357Y-6183214D01*
X1263929Y-6483214D02*
X1263929Y-6283214D01*
X1263929Y-6311786D02*
X1278214Y-6297500D01*
X1306786Y-6283214D01*
X1349643Y-6283214D01*
X1378214Y-6297500D01*
X1392500Y-6326071D01*
X1392500Y-6483214D01*
X1392500Y-6326071D02*
X1406786Y-6297500D01*
X1435357Y-6283214D01*
X1478214Y-6283214D01*
X1506786Y-6297500D01*
X1521071Y-6326071D01*
X1521071Y-6483214D01*
X1663928Y-6483214D02*
X1663928Y-6283214D01*
X1663928Y-6311786D02*
X1678214Y-6297500D01*
X1706786Y-6283214D01*
X1749643Y-6283214D01*
X1778214Y-6297500D01*
X1792500Y-6326071D01*
X1792500Y-6483214D01*
X1792500Y-6326071D02*
X1806786Y-6297500D01*
X1835357Y-6283214D01*
X1878214Y-6283214D01*
X1906786Y-6297500D01*
X1921071Y-6326071D01*
X1921071Y-6483214D01*
X2506786Y-6168929D02*
X2249643Y-6554643D01*
X2892500Y-6183214D02*
X2921071Y-6183214D01*
X2949643Y-6197500D01*
X2963928Y-6211786D01*
X2978214Y-6240357D01*
X2992500Y-6297500D01*
X2992500Y-6368929D01*
X2978214Y-6426071D01*
X2963928Y-6454643D01*
X2949643Y-6468929D01*
X2921071Y-6483214D01*
X2892500Y-6483214D01*
X2863928Y-6468929D01*
X2849643Y-6454643D01*
X2835357Y-6426071D01*
X2821071Y-6368929D01*
X2821071Y-6297500D01*
X2835357Y-6240357D01*
X2849643Y-6211786D01*
X2863928Y-6197500D01*
X2892500Y-6183214D01*
X3121071Y-6454643D02*
X3135357Y-6468929D01*
X3121071Y-6483214D01*
X3106786Y-6468929D01*
X3121071Y-6454643D01*
X3121071Y-6483214D01*
X3321071Y-6183214D02*
X3349643Y-6183214D01*
X3378214Y-6197500D01*
X3392500Y-6211786D01*
X3406785Y-6240357D01*
X3421071Y-6297500D01*
X3421071Y-6368929D01*
X3406785Y-6426071D01*
X3392500Y-6454643D01*
X3378214Y-6468929D01*
X3349643Y-6483214D01*
X3321071Y-6483214D01*
X3292500Y-6468929D01*
X3278214Y-6454643D01*
X3263928Y-6426071D01*
X3249643Y-6368929D01*
X3249643Y-6297500D01*
X3263928Y-6240357D01*
X3278214Y-6211786D01*
X3292500Y-6197500D01*
X3321071Y-6183214D01*
X3521071Y-6183214D02*
X3706785Y-6183214D01*
X3606785Y-6297500D01*
X3649643Y-6297500D01*
X3678214Y-6311786D01*
X3692500Y-6326071D01*
X3706785Y-6354643D01*
X3706785Y-6426071D01*
X3692500Y-6454643D01*
X3678214Y-6468929D01*
X3649643Y-6483214D01*
X3563928Y-6483214D01*
X3535357Y-6468929D01*
X3521071Y-6454643D01*
X3849643Y-6483214D02*
X3906785Y-6483214D01*
X3935357Y-6468929D01*
X3949643Y-6454643D01*
X3978214Y-6411786D01*
X3992500Y-6354643D01*
X3992500Y-6240357D01*
X3978214Y-6211786D01*
X3963928Y-6197500D01*
X3935357Y-6183214D01*
X3878214Y-6183214D01*
X3849643Y-6197500D01*
X3835357Y-6211786D01*
X3821071Y-6240357D01*
X3821071Y-6311786D01*
X3835357Y-6340357D01*
X3849643Y-6354643D01*
X3878214Y-6368929D01*
X3935357Y-6368929D01*
X3963928Y-6354643D01*
X3978214Y-6340357D01*
X3992500Y-6311786D01*
X4106786Y-6183214D02*
X4106786Y-6240357D01*
X4221071Y-6183214D02*
X4221071Y-6240357D01*
X4663928Y-6597500D02*
X4649643Y-6583214D01*
X4621071Y-6540357D01*
X4606786Y-6511786D01*
X4592500Y-6468929D01*
X4578214Y-6397500D01*
X4578214Y-6340357D01*
X4592500Y-6268929D01*
X4606786Y-6226071D01*
X4621071Y-6197500D01*
X4649643Y-6154643D01*
X4663928Y-6140357D01*
X4906786Y-6283214D02*
X4906786Y-6483214D01*
X4835357Y-6168929D02*
X4763928Y-6383214D01*
X4949643Y-6383214D01*
X5292500Y-6483214D02*
X5292500Y-6183214D01*
X5421071Y-6483214D02*
X5421071Y-6326071D01*
X5406786Y-6297500D01*
X5378214Y-6283214D01*
X5335357Y-6283214D01*
X5306786Y-6297500D01*
X5292500Y-6311786D01*
X5606785Y-6483214D02*
X5578214Y-6468929D01*
X5563928Y-6454643D01*
X5549643Y-6426071D01*
X5549643Y-6340357D01*
X5563928Y-6311786D01*
X5578214Y-6297500D01*
X5606785Y-6283214D01*
X5649643Y-6283214D01*
X5678214Y-6297500D01*
X5692500Y-6311786D01*
X5706785Y-6340357D01*
X5706785Y-6426071D01*
X5692500Y-6454643D01*
X5678214Y-6468929D01*
X5649643Y-6483214D01*
X5606785Y-6483214D01*
X5878214Y-6483214D02*
X5849643Y-6468929D01*
X5835357Y-6440357D01*
X5835357Y-6183214D01*
X6106786Y-6468929D02*
X6078214Y-6483214D01*
X6021071Y-6483214D01*
X5992500Y-6468929D01*
X5978214Y-6440357D01*
X5978214Y-6326071D01*
X5992500Y-6297500D01*
X6021071Y-6283214D01*
X6078214Y-6283214D01*
X6106786Y-6297500D01*
X6121071Y-6326071D01*
X6121071Y-6354643D01*
X5978214Y-6383214D01*
X6235357Y-6468929D02*
X6263928Y-6483214D01*
X6321071Y-6483214D01*
X6349643Y-6468929D01*
X6363928Y-6440357D01*
X6363928Y-6426071D01*
X6349643Y-6397500D01*
X6321071Y-6383214D01*
X6278214Y-6383214D01*
X6249643Y-6368929D01*
X6235357Y-6340357D01*
X6235357Y-6326071D01*
X6249643Y-6297500D01*
X6278214Y-6283214D01*
X6321071Y-6283214D01*
X6349643Y-6297500D01*
X6463928Y-6597500D02*
X6478214Y-6583214D01*
X6506786Y-6540357D01*
X6521071Y-6511786D01*
X6535357Y-6468929D01*
X6549643Y-6397500D01*
X6549643Y-6340357D01*
X6535357Y-6268929D01*
X6521071Y-6226071D01*
X6506786Y-6197500D01*
X6478214Y-6154643D01*
X6463928Y-6140357D01*
M02*
